<?xml version="1.0" encoding="UTF-8" standalone="no"?>
<svg 
  xmlns="http://www.w3.org/2000/svg" 
  xmlns:xlink="http://www.w3.org/1999/xlink" width="114.54509" height="134.67732" viewBox="0 0 114.54509 134.67732" preserveAspectRatio="xMidYMid meet">
  <g id="EPD_Logo" transform="translate(-18.839909,-12.470328)">
    <defs id="defs4428">
      <path id="ga_outline" d="M19.064,15.302c0.044,1.469,0.274,2.572,0.504,2.48c0.184-0.138,0.322,0.598,0.183,1.608 c-0.091,1.01,0.046,1.745,0.229,1.606c0.23-0.136,0.367,0.597,0.23,1.607c-0.092,1.011,0.045,1.746,0.275,1.607 c0.184-0.137,0.321,0.459,0.184,1.378c-0.093,0.918,0,1.516,0.23,1.378c0.276-0.138,0.367,0.459,0.229,1.377 c-0.091,0.918-0.046,1.561,0.137,1.47c0.414-0.275,0.963,5.647,0.596,6.292c-0.23,0.321-0.092,0.367,0.275,0.136 c0.412-0.274,0.506,0.094,0.367,1.517c-0.092,1.01-0.046,1.792,0.139,1.699c0.412-0.275,1.421,8.404,1.053,9.002 c-0.23,0.366-0.137,0.412,0.276,0.182c0.414-0.274,0.505,0.094,0.367,1.516c-0.092,1.01-0.046,1.791,0.138,1.654 c0.367-0.184,0.963,4.18,1.055,7.485c0,1.286,0.183,2.25,0.413,2.113c0.184-0.092,0.322,0.368,0.321,1.102 c0,0.689,0.184,1.976,0.412,2.801c0.276,0.828,0.276,1.378,0.138,1.287c-0.183-0.138-0.366,0.183-0.366,0.643 c0,0.459,0.183,0.733,0.458,0.597c0.229-0.184,0.321,0.597,0.184,1.928c-0.185,1.332-0.093,1.929,0.136,1.562 c0.277-0.458,0.414-0.183,0.414,0.827c0,0.781,0.184,1.607,0.459,1.747c0.229,0.136,0.458,0.503,0.458,0.732 c0,0.276-0.275,0.322-0.55,0.138c-0.46-0.276-0.46-0.231-0.046,0.367c0.321,0.368,0.413,0.872,0.229,1.057 c-0.183,0.23-0.045,0.23,0.321,0c0.506-0.274,0.596-0.138,0.415,0.598c-0.184,0.642-0.093,0.917,0.182,0.733 c0.322-0.229,0.415,0.093,0.276,0.874c-0.138,0.734-0.046,1.102,0.23,0.918c0.275-0.184,0.366,0.183,0.229,0.963 c-0.139,0.689-0.14,1.104,0,0.966c0.229-0.23,1.01,0.963,1.974,2.984c0.275,0.642,0.689,1.514,0.919,1.929 c0.229,0.504,0.229,1.285-0.093,2.066c-0.414,1.103-0.322,1.378,0.688,2.205c0.643,0.551,1.194,1.148,1.194,1.423 c0,0.275-0.874,1.24-1.975,2.158c-1.929,1.608-2.159,2.203-2.159,5.097c-0.046,0.736-0.46,2.064-0.966,2.894 c-0.688,1.057-0.918,2.113-0.78,3.306c0.092,1.01-0.047,1.699-0.23,1.56c-0.23-0.137-0.185,0.184,0.091,0.644 c0.275,0.506,0.367,1.057,0.23,1.194c-0.139,0.138,0,0.367,0.32,0.598c0.367,0.23,0.46,0.138,0.184-0.322 c-0.275-0.505-0.229-0.551,0.229-0.092c0.368,0.321,0.642,1.286,0.642,2.157c0.047,0.874,0.23,1.471,0.459,1.288 c0.229-0.138,0.277,0.229,0.139,0.873c-0.184,0.596-0.322,1.285-0.322,1.469c0,0.229-0.184,0.275-0.368,0.137 c-0.183-0.091-0.412,0.23-0.412,0.781c-0.093,0.827,0,0.874,0.366,0.322c0.414-0.551,0.459-0.506,0.185,0.229 c-0.598,1.883-1.059,4.915-0.783,5.833c0.184,0.734,0.092,0.871-0.413,0.551c-0.415-0.23-0.368,0,0.184,0.734 c1.422,2.021,3.718,7.624,4.315,10.564c0.596,3.075,0.596,3.075,7.622,3.444c3.582,0.185,7.118,0.415,7.899,0.461 c0.78,0.044,3.856,0.276,6.889,0.416c3.029,0.183,6.245,0.414,7.117,0.505c0.873,0.092,4.087,0.322,7.118,0.461 c3.031,0.138,7.99,0.461,11.02,0.69c4.778,0.368,12.355,0.829,18.37,1.151c1.24,0.045,1.791,0.275,1.698,0.688 c-0.092,0.321,0.093,1.196,0.415,1.929c0.411,1.012,0.411,1.425-0.093,2.067c-0.458,0.504-0.458,0.642-0.045,0.413 c0.321-0.183,0.55-0.093,0.549,0.322c0,0.414,0.552,0.644,1.608,0.644c1.332,0,1.608-0.184,1.654-0.965 c0-0.55,0.184-2.02,0.368-3.352c0.229-1.516,0.185-2.297-0.092-2.112c-0.275,0.183-0.367-0.14-0.23-0.689 c0.185-0.551,0.093-0.919-0.137-0.735c-0.23,0.138-0.413-0.184-0.413-0.735c0-0.645,0.184-0.874,0.598-0.645 c0.367,0.278,0.367,0.141-0.047-0.411c-1.01-1.241-0.136-2.938,1.425-2.664c0.183,0,0.322-0.274,0.322-0.642 c0-0.415,0.458-0.689,1.194-0.689c0.641,0,1.055,0.183,0.917,0.367c-0.091,0.183,0.229,0.413,0.781,0.413 c0.55,0.047,1.055,0.323,1.147,0.6c0.091,0.228,0.368,0.319,0.597,0.183c0.275-0.138,0.688-0.045,1.01,0.185 c0.964,0.78,5.051,1.469,5.693,0.919c0.322-0.277,0.46-0.688,0.276-0.918c-0.551-0.967-0.458-3.675,0.185-4.319 c0.596-0.549,0.551-0.642-0.045-0.642c-1.057,0-0.918-0.597,0.414-1.836c0.873-0.827,1.01-1.193,0.598-1.469 c-0.46-0.277-0.46-0.368,0-0.368c0.321,0,0.458-0.229,0.321-0.46c-0.781-1.285-0.642-3.581,0.321-5.6 c1.012-2.067,2.665-3.629,2.022-1.883c-0.275,0.642-0.186,0.688,0.229,0.275c0.551-0.551,0.137-1.699-0.504-1.286 c-0.23,0.138-0.322-0.644-0.229-1.701c0.091-1.101,0.413-2.02,0.688-2.112c0.368-0.137,0.368-0.366,0-0.782 c-0.597-0.687,0.184-1.375,1.562-1.375c0.597,0,0.917-0.367,1.011-1.286c0.045-0.688-0.093-1.24-0.322-1.24 c-0.275,0-0.321-0.229-0.138-0.503c0.184-0.368,0.413-0.322,0.688,0.09c0.229,0.369,0.413,0.414,0.413,0.185 c0-0.275-0.228-0.736-0.503-1.012c-0.644-0.642,1.147-1.928,2.525-1.791c1.607,0.186,1.47-1.515-0.184-2.066 c-1.606-0.597-2.112-1.698-1.149-2.663c0.507-0.505,0.69-0.551,0.69-0.138c0,0.321,0.183,0.505,0.415,0.368 c0.229-0.139,0.962,0.046,1.698,0.413c1.423,0.734,2.572,0.369,1.423-0.459c-1.055-0.734-0.964-1.469,0.14-1.837 c0.504-0.137,0.871-0.504,0.779-0.779c-0.183-1.057-1.469-2.205-2.479-2.205c-1.47,0-2.571-1.286-2.341-2.802 c0.138-0.689,0.046-1.194-0.183-1.056c-0.185,0.136-0.369-0.277-0.369-0.919c0-0.643,0.229-1.287,0.459-1.423 c0.276-0.184,0.092-0.597-0.413-1.056c-0.505-0.414-1.009-1.379-1.102-2.067c-0.184-1.563-2.34-3.95-4.086-4.548 c-1.516-0.551-1.882-1.653-1.928-5.694c-0.045-1.929-0.229-2.756-0.551-2.617c-0.458,0.183-1.882-2.802-1.699-3.537 c0.369-1.699,0.323-2.067-0.552-2.067c-0.503,0-0.871-0.275-0.78-0.596c0.046-0.368-0.091-0.505-0.321-0.321 c-0.963,0.595-4.179-1.654-5.969-4.18c-1.01-1.424-1.745-2.755-1.653-2.939c0.138-0.184-0.136-0.321-0.596-0.275 c-0.597,0.045-0.827-0.367-0.916-1.746c-0.094-1.01-0.507-2.066-0.874-2.341c-0.414-0.323-0.597-0.735-0.459-1.011 c0.137-0.23-0.644-0.918-1.792-1.471c-1.103-0.551-1.929-1.239-1.791-1.469c0.183-0.23,0-0.275-0.367-0.138 c-0.782,0.275-2.342-2.387-1.837-3.169c0.138-0.275,0.045-0.321-0.229-0.137c-0.321,0.184-0.552,0.09-0.552-0.185 c0-0.643-2.156-2.663-3.809-3.49c-0.736-0.414-1.148-0.918-0.965-1.194c0.184-0.321,0.138-0.367-0.183-0.184 c-0.597,0.366-2.938-1.516-2.572-2.113c0.139-0.23,0.046-0.321-0.184-0.275c-0.274,0.091-0.504-0.046-0.551-0.322 c-0.045-0.275-0.459-1.101-0.963-1.882c-0.459-0.781-0.689-1.561-0.504-1.746c0.183-0.183,0.137-0.321-0.138-0.275 c-1.102,0.229-1.653-0.046-1.563-0.826c0.139-0.965-0.411-2.343-1.33-3.399c-0.368-0.458-0.55-1.101-0.368-1.515 c0.139-0.414,0.092-0.597-0.183-0.459c-0.551,0.321-1.516-1.516-1.195-2.296c0.277-0.734-1.101-1.331-3.167-1.378 c-0.872,0-1.332-0.23-1.24-0.597c0.047-0.368-0.091-0.506-0.321-0.368c-0.229,0.138-1.011-0.322-1.744-1.102 c-0.689-0.735-1.423-1.378-1.608-1.378c-0.871,0-3.994-2.619-4.04-3.353c0-1.562,1.24-3.766,3.079-5.419 c1.01-0.917,1.974-1.928,2.158-2.205c0.229-0.366-7.302-0.506-28.839-0.51l-29.16-0.005L19.064,15.302z" />
    </defs>
    <clipPath id="ga_clippath">
      <use xlink:href="#ga_outline" overflow="hidden" />
    </clipPath>
    <path id="sky" clip-path="url(#ga_clippath)" fill-rule="evenodd" clip-rule="evenodd" fill="#C8E3E8" d="M6.465,0.214 C53.844,0.223,101.221,0.235,148.6,0.218c0.902,0,1.105,41.372,1.1,42.276c-0.043,8.063-0.028,16.126-0.029,24.19 c-2.013,0.709-2.952,2.556-4.246,4.027c-0.11,0.125-0.071,0.383-0.102,0.582c-0.059,0.365-0.205,0.655-0.519,0.9 c-1.732,1.357-2.716,3.499-4.751,4.542c-0.803,0.413-1.077,1.282-1.458,1.954c-0.877,1.545-2.678,1.056-3.881,2.066 c-1.218,1.022-3.077,1.215-4.863,1.154c-1.458-0.051-2.934-0.011-4.404-0.051c-0.839-0.023-1.815,0.221-2.493-0.12 c-1.969-0.997-4.086-1.794-5.803-3.204c-2.252-1.847-4.381-3.844-6.546-5.797c-0.38-0.345-0.776-0.645-1.275-0.504 c-1.043,0.295-1.149-0.265-1.049-1.052c0.058-0.474,0.181-0.942,0.216-1.417c0.034-0.468,0.176-1.077-0.351-1.305 c-1.1-0.478-1.649-1.483-2.423-2.276c-0.432-0.447-0.927-1.267-1.462-0.044c-0.11,0.252-0.392,0.205-0.643,0.143 c-1.373-0.333-2.896-0.236-3.918-1.521c-0.27-0.34-0.732-0.317-1.189-0.362c-1.495-0.149-3.101,0.701-4.489-0.461 c-0.177-0.148-0.384-0.038-0.545,0.098c-1.074,0.896-2.069,0.511-3.052-0.183c-0.386-0.272-0.805-0.708-1.29-0.427 c-1.031,0.599-2.188,0.326-3.269,0.56c-0.716,0.154-1.635,0.317-2.241-0.096c-1.468-1.012-3.32-0.795-4.803-1.683 c-0.29-0.172-0.664-0.15-0.918,0.056c-0.868,0.708-1.884,0.544-2.873,0.558c-0.477,0.01-0.969-0.069-1.364,0.311 c-0.608,0.584-1.328,0.492-2.028,0.261c-1.229-0.403-2.548-0.281-3.763-0.613c-1.124-0.305-2.037,0.554-3.089,0.293 c-1.861-0.461-3.769-0.135-5.667-0.413c-2.028-0.297-4.128-0.499-6.216-0.325c-0.496,0.04-1.011-0.022-1.371-0.344 c-1.589-1.417-3.494-1.122-5.36-1.057c-0.226-0.303-0.576-0.207-0.871-0.294c-1.325-0.39-2.73,0.118-4.017-0.329 c-0.87-0.298-1.635-0.522-2.531-0.085c-0.421,0.206-1.096,0.185-0.774-0.618c0.229-0.57-0.02-0.559-0.427-0.664 c-0.925-0.24-1.801-0.344-2.653,0.228c-0.582,0.391-1.054,0.282-1.341-0.401c-0.41-0.976-1.302-1.763-1.141-2.968 c0.038-0.297-0.184-0.635-0.465-0.613c-1.508,0.121-2.996-0.696-4.504-0.1c-1.051,0.417-2.147,0.413-3.178,0.107 c-1.474-0.433-2.932-0.959-2.703-3.029c0.063-0.57-0.213-1.302-0.956-1.327c-1.592-0.056-3.223-0.348-4.771,0.167 c-1.075,0.357-2.05-0.01-3.056-0.121c-0.583-0.065-0.776-0.558-0.807-1.162c-0.086-1.752-2.561-2.969-4.044-1.968 c-0.648,0.439-1.293,0.488-1.927,0.222c-0.902-0.377-1.798-0.632-2.789-0.604c-0.563,0.018-0.839-0.14-0.597-0.889 c0.498-1.537,1.395-2.691,2.676-3.633C5.793,42.49,6.368,0.93,6.465,0.214" />
    <circle id="sun" clip-path="url(#ga_clippath)" fill="#F9E04B" stroke="#FFFFFF" stroke-width="0.5" stroke-miterlimit="10" cx="46.358" cy="58.812" r="14.523" />
    <polygon id="water" clip-path="url(#ga_clippath)" fill-rule="evenodd" clip-rule="evenodd" fill="#5AAFD1" points="13.892,102.581 76.067,99.799 101.941,97.199 137.123,96.274 137.857,151.931 15,151.909 " />
    <path id="mountains" clip-path="url(#ga_clippath)" clip-rule="evenodd" fill-rule="evenodd" fill="#B0C494" d="m 77.462,83.279 c 0.25,0.287 0.303,0.592 0.052,1.028 -0.028,-0.406 -0.046,-0.713 -0.065,-1.017 l 0.013,-0.011 m -4.181,2.626 c -0.109,0.142 -0.222,0.284 -0.332,0.426 -0.048,-0.682 -0.096,-1.364 -0.145,-2.045 0.11,-0.022 0.055,-0.497 0.313,-0.114 0.235,0.348 0.472,0.694 0.709,1.04 -0.082,0.135 -0.163,0.273 -0.244,0.409 -0.099,0.096 -0.201,0.19 -0.301,0.284 m 21.991,0.504 c 0.05,0.129 0.101,0.259 0.15,0.387 -0.25,-0.041 -0.067,-0.269 -0.161,-0.378 l 0.011,-0.009 m 0.758,2.436 c -0.37,-0.572 -0.055,-1.163 -0.075,-1.756 0.336,0.562 0.272,1.149 0.075,1.756 m 31.605,8.713 c 0.418,-0.015 0.837,-0.046 1.256,-0.051 -0.413,-0.036 -0.832,-0.022 -1.256,0.051 z m -12.26,-10.336 c -0.087,0 -0.171,-0.002 -0.255,-0.006 0.086,0.001 0.17,0.004 0.255,0.006 M 94.434,81.038 c 0.016,0.027 0.043,0.053 0.041,0.078 -0.002,0.025 -0.036,0.046 -0.056,0.068 0.005,-0.048 0.009,-0.098 0.015,-0.146 m -0.042,1.27 c 0,-0.151 -0.003,-0.302 -0.003,-0.452 0.098,0.055 0.257,0.091 0.279,0.165 0.059,0.205 -0.108,0.261 -0.276,0.287 M 93.09,81.865 c 0.009,0.121 0.045,0.248 0.018,0.358 -0.104,0.423 0.245,1.191 -0.381,1.171 -0.391,-0.01 -0.988,-0.551 -1.047,-1.227 -0.031,-0.349 0.068,-0.735 -0.223,-1.027 0.081,-0.335 0.161,-0.67 0.238,-0.984 0.839,0.331 0.324,1.632 1.395,1.709 m 2.17,4.552 c -0.396,-0.168 -0.623,0.132 -0.873,0.354 0,-1.344 0,-2.661 0,-3.976 0.922,-0.001 1.234,-0.546 1.083,-1.685 0.477,0.811 0.08,1.47 0.506,1.949 -0.235,1.116 -0.47,2.232 -0.705,3.348 l -0.011,0.01 z m -4.071,-4.546 c -0.259,-0.353 -0.628,-0.462 -1.041,-0.523 -0.228,-0.033 -0.611,-0.093 -0.645,-0.215 -0.475,-1.804 -1.963,-1.077 -3.054,-1.19 -0.817,-0.083 -1.417,-0.1 -1.305,-1.166 0.095,-0.874 -0.539,-0.799 -1.129,-0.755 -2.229,0.166 -4.452,-0.098 -6.676,-0.125 -0.116,-0.001 -0.245,-0.118 -0.344,-0.091 -2.223,0.585 -4.091,-0.957 -6.2,-1.031 -0.295,-0.011 -0.611,-0.081 -0.738,-0.336 -0.849,-1.692 -2.538,-1.314 -3.934,-1.552 -0.819,-0.141 -1.684,0.042 -2.291,-0.744 -0.179,-0.232 -0.491,-0.236 -0.777,-0.252 -2.355,-0.119 -4.709,-0.368 -7.071,-0.239 -1.711,0.095 -3.313,-0.446 -4.951,-0.776 -0.603,-0.122 -0.865,-0.824 -1.481,-0.988 -0.17,-0.043 -0.192,-0.308 -0.058,-0.397 0.816,-0.542 0.975,-1.823 2.178,-1.926 0.221,-0.021 0.557,0.055 0.594,-0.259 0.051,-0.418 -0.371,-0.582 -0.633,-0.585 -0.992,-0.016 -1.629,-0.799 -2.499,-1.07 -0.334,-0.103 -0.698,-0.329 -0.686,-0.747 0.013,-0.445 0.452,-0.514 0.771,-0.646 0.257,-0.106 0.552,-0.125 0.793,-0.252 0.249,-0.129 0.467,-0.358 0.41,-0.674 -0.065,-0.37 -0.408,-0.383 -0.67,-0.336 -1.275,0.227 -2.381,-0.652 -3.65,-0.519 -0.727,0.076 -0.648,-0.542 -0.648,-1.019 0,-0.908 0.666,-1.629 0.719,-2.522 1.866,-0.065 3.771,-0.36 5.36,1.057 0.36,0.322 0.875,0.383 1.371,0.344 2.086,-0.174 4.188,0.028 6.216,0.325 1.898,0.278 3.807,-0.048 5.667,0.413 1.051,0.261 1.965,-0.598 3.089,-0.293 1.215,0.332 2.534,0.21 3.763,0.613 0.701,0.23 1.419,0.323 2.028,-0.261 0.396,-0.38 0.888,-0.301 1.364,-0.311 0.99,-0.014 2.004,0.151 2.873,-0.558 0.254,-0.206 0.628,-0.228 0.919,-0.056 1.481,0.888 3.333,0.671 4.802,1.683 0.606,0.414 1.525,0.25 2.241,0.096 1.082,-0.234 2.238,0.039 3.269,-0.561 0.484,-0.281 0.904,0.155 1.29,0.427 0.983,0.694 1.977,1.078 3.052,0.183 0.161,-0.136 0.368,-0.246 0.545,-0.098 1.388,1.163 2.993,0.312 4.489,0.462 0.457,0.044 0.919,0.022 1.189,0.362 1.021,1.285 2.545,1.188 3.919,1.521 0.25,0.063 0.532,0.109 0.643,-0.143 0.535,-1.223 1.029,-0.402 1.461,0.044 0.774,0.793 1.323,1.798 2.423,2.276 0.526,0.228 0.386,0.836 0.351,1.304 -0.035,0.475 -0.157,0.943 -0.216,1.417 -0.1,0.787 0.007,1.347 1.049,1.052 0.498,-0.144 0.895,0.159 1.275,0.504 2.165,1.953 4.294,3.951 6.545,5.797 1.719,1.409 3.834,2.207 5.804,3.204 0.678,0.341 1.654,0.097 2.493,0.12 1.469,0.04 2.947,0 4.405,0.051 1.786,0.062 3.645,-0.131 4.863,-1.154 1.203,-1.011 3.004,-0.521 3.881,-2.066 0.382,-0.672 0.656,-1.541 1.458,-1.954 2.035,-1.043 3.019,-3.185 4.751,-4.542 0.313,-0.246 0.46,-0.535 0.519,-0.9 0.031,-0.199 -0.008,-0.457 0.102,-0.582 1.294,-1.471 2.233,-3.317 4.246,-4.027 l -0.003,16.608 c -1.257,0.494 -2.892,0.551 -2.897,2.5 0,0.147 -0.119,0.215 -0.243,0.128 -0.767,-0.543 -1.617,1.106 -2.419,-0.096 -0.084,-0.127 -1.011,0.033 -1.148,0.422 -0.245,0.704 -0.637,0.542 -1.124,0.447 -0.857,-0.166 -1.645,-0.496 -2.555,0.2 -0.772,0.591 -1.167,-0.147 -1.26,-1.151 -0.52,1.194 -1,0.459 -1.529,0.049 -0.045,1.121 -0.211,1.823 -1.542,1.699 -0.848,-0.081 -1.907,-0.282 -2.647,0.391 -0.672,0.607 -1.108,0.675 -1.588,-0.156 -0.208,-0.362 -0.465,-0.468 -0.769,0.025 -0.218,0.352 -0.615,0.596 -0.946,0.873 -0.247,0.206 -0.578,0.276 -0.689,-0.079 -0.534,-1.67 -0.731,0.243 -1.211,0.101 0.054,-1.063 -0.521,-0.969 -1.38,-0.912 -1.212,0.082 -2.354,0.488 -3.661,0.369 -0.963,-0.088 -1.965,-0.647 -3,-0.271 -0.593,0.215 -1.163,0.269 -1.763,-0.207 -0.492,-0.39 -1.245,-0.875 -1.492,0.336 -0.005,0.024 -0.212,0.005 -0.327,0.005 -0.036,-0.247 -0.071,-0.492 -0.104,-0.738 -0.086,-0.002 -0.169,-0.005 -0.255,-0.008 -0.065,0.057 -0.131,0.113 -0.197,0.171 -1.627,0.27 -3.237,0.297 -4.797,-0.349 -0.101,-0.041 -0.203,-0.077 -0.305,-0.115 -0.554,1.459 -0.914,-0.313 -1.466,-0.053 -0.063,0.574 -0.421,0.832 -1.05,0.736 -0.945,-0.146 -1.403,-1.285 -2.518,-1.211 -0.136,0.01 -0.348,-1.12 -0.538,-1.771 -0.448,0.072 -1.001,1.257 -1.353,-0.078 -0.068,-0.258 -0.311,-0.117 -0.48,0.006 -0.233,0.17 -0.568,0.148 -0.574,-0.12 -0.024,-1.111 -1.149,-1.918 -0.813,-3.125 0.093,-0.335 0.014,-0.72 0.014,-1.081 -0.163,1.078 -1.331,0.974 -1.754,1.596 -0.568,0.836 -1,0.619 -1.54,-0.01 -0.353,-0.415 -0.691,-0.779 -0.46,-1.374 0.084,-0.215 0.218,-0.508 -0.087,-0.609 -0.284,-0.095 -0.395,0.185 -0.457,0.425 -0.243,0.924 -0.48,1.848 -0.719,2.771 l -0.051,0.035 c -0.426,-0.479 -0.029,-1.138 -0.505,-1.95 0.151,1.139 -0.161,1.684 -1.083,1.685 0.001,-0.162 0.001,-0.325 0.004,-0.488 0.168,-0.026 0.334,-0.082 0.276,-0.287 -0.021,-0.075 -0.181,-0.11 -0.279,-0.165 -0.341,0.055 -0.628,0.061 -0.595,-0.432 0.031,-0.46 -0.088,-0.896 -0.331,-1.351 -0.338,0.607 -0.316,1.208 -0.375,1.792 -1.07,-0.078 -0.555,-1.379 -1.395,-1.709 -0.075,0.314 -0.156,0.649 -0.238,0.984 -0.046,0.257 -0.033,0.537 -0.265,0.728 m 3.245,-0.829 -0.015,0.146 c 0.02,-0.021 0.054,-0.043 0.056,-0.068 0.002,-0.025 -0.026,-0.052 -0.041,-0.078 M 6.458,41.383 c -0.098,0.716 -0.665,1.107 -1.16,1.47 -1.281,0.941 -2.178,2.096 -2.676,3.633 -0.242,0.749 0.036,0.906 0.597,0.888 0.99,-0.028 1.886,0.227 2.789,0.604 0.634,0.266 1.279,0.217 1.926,-0.222 1.484,-1.001 3.958,0.216 4.045,1.968 0.031,0.604 0.223,1.096 0.807,1.162 1.006,0.111 1.981,0.479 3.056,0.121 1.548,-0.514 3.179,-0.223 4.771,-0.167 0.744,0.025 1.02,0.757 0.956,1.327 -0.229,2.069 1.229,2.597 2.703,3.029 1.031,0.306 2.128,0.309 3.178,-0.107 1.508,-0.597 2.996,0.221 4.504,0.1 0.281,-0.022 0.503,0.315 0.465,0.613 -0.16,1.205 0.73,1.992 1.141,2.968 0.287,0.683 0.759,0.792 1.341,0.401 0.852,-0.572 1.729,-0.468 2.653,-0.228 0.407,0.105 0.658,0.094 0.43,0.664 -0.324,0.803 0.35,0.824 0.771,0.618 0.896,-0.437 1.66,-0.214 2.531,0.086 1.287,0.445 2.693,-0.062 4.017,0.328 0.294,0.087 0.645,-0.009 0.871,0.294 -0.055,0.893 -0.719,1.614 -0.719,2.522 0,0.477 -0.078,1.095 0.648,1.019 1.27,-0.133 2.375,0.746 3.65,0.519 0.262,-0.047 0.604,-0.034 0.67,0.336 0.058,0.316 -0.161,0.545 -0.41,0.674 -0.241,0.128 -0.536,0.146 -0.793,0.252 -0.319,0.133 -0.759,0.201 -0.771,0.646 -0.012,0.417 0.352,0.644 0.686,0.747 0.869,0.271 1.507,1.054 2.499,1.07 0.262,0.003 0.684,0.167 0.633,0.585 -0.037,0.313 -0.373,0.238 -0.594,0.259 -1.203,0.104 -1.362,1.384 -2.178,1.926 -0.134,0.09 -0.112,0.354 0.058,0.397 0.617,0.164 0.879,0.866 1.482,0.988 1.638,0.331 3.24,0.871 4.951,0.776 2.362,-0.129 4.716,0.12 7.071,0.239 0.286,0.016 0.598,0.021 0.777,0.252 0.606,0.785 1.472,0.603 2.291,0.744 1.396,0.238 3.085,-0.14 3.934,1.552 0.126,0.256 0.442,0.326 0.738,0.336 2.109,0.074 3.977,1.616 6.2,1.031 0.099,-0.026 0.228,0.09 0.344,0.091 2.225,0.027 4.447,0.292 6.676,0.125 0.59,-0.044 1.224,-0.118 1.129,0.755 -0.112,1.066 0.488,1.083 1.305,1.166 1.091,0.113 2.58,-0.614 3.054,1.19 0.034,0.122 0.417,0.182 0.645,0.215 0.413,0.061 0.782,0.17 1.041,0.522 -0.162,0.549 -0.225,1.162 -0.88,1.432 -0.098,-0.894 -1.146,-0.591 -1.353,-1.286 -0.363,0.368 0.028,0.888 -0.49,1.155 -0.111,-0.43 0.166,-1.144 -0.499,-1.139 -0.422,0.004 -0.384,0.611 -0.473,0.987 -0.065,0.269 -0.232,0.563 -0.178,0.805 0.239,1.054 -0.579,1.688 -0.926,2.505 -0.135,0.313 -0.434,0.312 -0.721,0.307 -0.024,-0.051 -0.045,-0.101 -0.063,-0.153 0.228,-1.318 -1.017,-2.11 -1,-3.388 -0.74,0.361 -0.854,1.017 -1.284,1.411 -0.471,-0.501 -0.232,-1.257 -0.772,-1.804 -0.134,0.521 -0.24,0.978 -0.378,1.427 -0.04,0.126 -0.17,0.224 -0.257,0.335 -0.599,-1.12 -0.462,0.326 -0.711,0.241 -0.289,-0.236 0.098,-0.766 -0.521,-0.86 0.036,0.464 0.071,0.883 0.105,1.3 l -0.404,0 c -0.086,-0.9 -0.315,-1.739 -0.926,-2.456 -0.471,0.354 -0.296,0.766 -0.283,1.146 -0.012,0.056 -0.026,0.111 -0.044,0.167 -1.592,0.17 -1.041,-1.137 -1.281,-1.986 -0.43,0.395 -0.393,0.835 -0.39,1.263 l -0.015,0.011 c -0.216,0.454 -0.433,0.908 -0.649,1.361 -0.175,0.366 0.109,1.059 -0.694,0.982 -0.083,-0.431 0.053,-0.917 -0.396,-1.453 l 0,2.642 c -0.376,-0.246 -0.465,0.146 -0.66,0.301 -0.336,-0.213 -0.457,-0.548 -0.52,-0.917 0.028,-0.074 0.032,-0.181 0.087,-0.22 0.663,-0.494 0.674,-1.415 0.264,-1.698 -0.596,-0.414 -0.583,0.667 -1.025,0.892 -0.017,-0.435 0.045,-0.895 -0.07,-1.303 -0.208,-0.732 -0.425,-1.874 -1.271,-1.679 -0.662,0.151 -0.295,1.241 -0.116,1.93 0.009,0.038 0.021,0.077 0.032,0.113 l -0.009,0.04 c -0.831,-0.298 -0.47,-1.186 -0.863,-1.716 -0.472,0.342 -0.456,0.958 -0.728,1.443 -0.275,-0.417 0.071,-0.929 -0.428,-1.351 -0.132,0.755 -0.179,1.529 -1.049,1.631 -0.109,-0.593 -0.237,-1.283 -0.389,-2.096 -0.594,1.09 -0.342,2.15 -0.436,3.179 -0.32,-0.004 -0.187,-0.85 -0.747,-0.383 -0.219,0.183 -0.47,-0.04 -0.352,-0.202 0.709,-0.965 -0.477,-1.722 -0.151,-2.624 -0.196,0.428 -0.308,0.849 -0.408,1.272 -0.058,0.237 -0.093,0.506 -0.41,0.495 -0.334,-0.012 -0.484,-0.256 -0.515,-0.563 -0.026,-0.277 -0.103,-0.593 -0.006,-0.833 0.311,-0.778 0.021,-1.273 -0.552,-1.594 -1.046,0.783 -0.583,2.099 -1.101,3.202 -0.666,-0.847 -0.477,-2.009 -1.354,-2.696 -0.236,0.679 -0.201,1.368 -0.829,1.872 -0.024,-0.255 -0.024,-0.439 -0.061,-0.613 -0.083,-0.402 0.229,-1.115 -0.266,-1.142 -0.482,-0.026 -0.89,0.58 -1.123,1.093 -0.077,0.17 -0.044,0.396 -0.042,0.596 0.004,0.479 -0.138,0.899 -0.387,1.302 -0.472,-0.241 -0.211,-0.745 -0.489,-1.095 -0.09,0.325 -0.146,0.53 -0.216,0.78 -0.202,-0.336 0.038,-0.701 -0.294,-1.018 -0.154,0.431 -0.294,0.822 -0.437,1.216 0.203,-0.817 -0.645,-1.65 0.051,-2.467 0.11,-0.13 -0.045,-0.388 -0.258,-0.469 -0.258,-0.099 -0.426,0.104 -0.437,0.278 -0.067,1.322 -1.845,2.034 -1.011,3.779 -0.641,-0.693 -1.063,-1.152 -1.491,-1.614 -0.645,0.75 -0.063,1.334 0.071,1.969 0.076,0.36 0.341,0.974 -0.3,1.05 -0.446,0.052 -0.902,-0.378 -0.76,-0.874 0.225,-0.783 -0.347,-1.275 -0.551,-1.883 -0.11,-0.332 -0.607,-0.743 -0.932,-0.745 -0.439,0 -0.391,0.602 -0.489,0.965 -0.093,0.352 0.086,0.774 -0.235,1.139 -0.466,-0.487 -0.03,-1.129 -0.399,-1.576 -0.333,0.263 -0.333,0.589 -0.365,0.904 -0.03,0.284 -0.065,0.646 -0.416,0.619 -0.386,-0.028 -0.239,-0.428 -0.283,-0.683 -0.077,-0.474 0.188,-1.018 -0.359,-1.564 -0.38,1.006 -1.238,1.53 -1.675,2.491 -0.296,-1.346 -0.29,-1.377 -1.651,-1.634 -0.517,-0.097 -0.384,-0.436 -0.394,-0.713 -0.023,-0.74 -0.009,-1.479 -0.009,-2.219 -0.265,0.717 -0.237,1.432 -0.274,2.144 -0.033,0.651 0.219,1.457 -0.756,1.774 0.059,-1.285 -0.083,-1.465 -0.496,-1.066 -0.601,0.58 -1.149,-0.197 -1.714,0.121 -1.088,0.613 -1.015,-0.53 -1.309,-1.034 -0.443,0.25 -0.289,0.844 -0.77,0.937 -0.331,0.078 -0.147,-1.342 -0.868,-0.262 -0.238,0.354 -1.017,0.163 -1.236,0.758 -0.295,-0.293 -0.909,0.555 -0.99,-0.198 -0.131,-1.203 -1.676,-1.223 -1.839,-2.371 -0.025,-0.18 -0.362,-0.126 -0.519,0.021 -0.847,0.794 -0.548,-0.373 -0.851,-0.566 -0.303,0.47 -0.137,1.411 -0.915,1.21 -0.94,-0.242 -0.436,-1.264 -0.621,-1.903 -0.463,0.013 -0.42,0.381 -0.585,0.565 -0.511,0.572 -0.513,1.642 -1.587,1.676 -0.113,-0.236 0.015,-0.571 -0.297,-0.726 0.17,-0.633 0.175,-1.133 -0.725,-0.913 -0.594,-0.413 0.075,-0.881 -0.069,-1.388 -0.131,0.71 -1.056,0.287 -1.182,0.952 -0.04,0.221 -0.17,0.385 -0.405,0.333 -0.225,-0.048 -0.286,-0.264 -0.287,-0.473 -0.006,-0.83 -0.002,-1.664 -0.002,-2.557 -0.863,1.346 -0.563,2.845 -0.987,4.212 l 0,-1.64 c -0.186,0.246 -0.289,0.384 -0.395,0.521 -0.063,-0.23 -0.12,-0.462 -0.193,-0.688 -0.053,-0.166 -0.132,-0.323 -0.158,-0.387 -1.092,0.335 -0.389,2.881 -2.537,1.84 -0.111,-0.052 0.052,0.606 -0.555,0.483 0.417,-1.473 0.396,-2.922 -0.44,-4.262 -0.013,0.139 -0.041,0.296 -0.045,0.451 -0.048,1.617 -0.044,1.627 -1.245,2.033 -0.045,0.014 -0.723,0.316 -0.698,-0.362 0.015,-0.41 -0.117,-0.825 -0.516,-1.152 -0.371,1.652 -0.374,1.661 -1.98,1.055 -0.66,-0.247 -1.528,-0.061 -1.886,-0.982 -0.097,-0.252 -0.56,-0.17 -0.717,0.098 -0.944,1.617 -2.18,0.856 -3.445,0.53 C 11.101,79.532 9.507,78.566 7.632,78.923 6.39,79.158 4.997,78.877 4.722,77.648 4.323,75.872 3.25,75.983 1.991,76.041 c -0.521,0.024 -1.042,0.001 -1.565,0 l 0.006,-34.663 6.026,0.005 z m 18.949,40.389 c 0.107,-0.116 0.216,-0.181 0.225,-0.256 0.009,-0.087 -0.075,-0.18 -0.12,-0.27 -0.076,0.06 -0.196,0.108 -0.215,0.182 -0.021,0.08 0.054,0.185 0.11,0.344 m 9.653,-0.993 c -0.025,-0.061 -0.05,-0.12 -0.075,-0.18 -0.028,0.021 -0.076,0.041 -0.077,0.063 -0.005,0.064 0.01,0.13 0.019,0.195 0.043,-0.024 0.087,-0.049 0.133,-0.078 m 114.607,6.124 c -0.593,0.118 -0.697,-0.354 -0.862,-0.751 -0.491,0.234 -0.178,0.773 -0.479,1.082 -0.439,0.19 -0.3,-0.885 -0.908,-0.462 -0.031,0.022 -0.412,-0.503 -0.392,0.15 0.009,0.248 -0.109,0.59 -0.335,0.568 -0.55,-0.05 -1.104,-0.624 -1.621,0.076 -0.818,-0.982 -1.45,0.31 -2.255,0.21 -0.652,-0.081 -1.396,0.752 -1.982,-0.248 -0.074,-0.13 -0.284,-0.095 -0.429,0.012 -1.135,0.835 -2.295,0.783 -3.517,0.162 -0.339,-0.171 -0.156,0.329 -0.31,0.439 -0.347,0.248 -0.362,1.443 -1.17,0.417 -0.048,-0.062 -0.278,-0.078 -0.297,-0.047 -0.835,1.549 -2.247,0.594 -3.333,0.629 -0.895,0.028 -1.762,-0.315 -2.648,0.239 -0.277,0.175 -0.778,0.063 -1.161,-0.008 -2.443,-0.442 -4.89,-0.221 -7.342,-0.24 -1.681,-0.011 -3.534,0.371 -5.218,-0.556 -0.279,-0.153 -1.371,-0.104 -1.579,0.095 -0.699,0.659 -1.475,0.398 -2.211,0.523 -0.134,-0.012 -0.267,-0.022 -0.399,-0.036 0.031,-0.475 -0.326,-0.673 -0.644,-0.901 -0.179,0.419 -0.832,0.563 -0.685,1.176 -0.579,-0.395 -1.201,-0.351 -1.834,-0.184 -0.387,-0.763 -1.107,-0.753 -1.705,0.023 -0.168,-0.075 -0.336,-0.15 -0.503,-0.227 0.277,-1.069 -0.509,-1.447 -1.25,-1.623 -0.82,-0.194 -1.38,0.228 -1.399,1.174 -0.004,0.174 -0.156,0.348 -0.239,0.521 -1.022,0.449 -1.212,-0.422 -1.551,-1.119 -0.226,0.582 -0.09,1.301 -0.927,1.247 l -0.017,0.002 c -0.025,-0.049 -0.058,-0.091 -0.098,-0.127 -0.006,-0.422 0.082,-0.854 -0.194,-1.389 -0.076,0.426 -0.13,0.723 -0.186,1.045 -0.291,-0.21 -0.467,-0.454 -0.527,-0.789 -0.053,-0.289 0.381,-0.835 -0.27,-0.81 -0.471,0.016 -0.293,0.57 -0.362,0.898 -0.034,0.165 -0.079,0.305 -0.319,0.341 -0.197,-0.252 -0.401,-0.748 -0.623,-0.755 -1.116,-0.044 -1.057,-0.855 -1.176,-1.581 -0.141,-0.853 -0.525,-1.677 -0.265,-2.582 0.085,-0.289 -0.156,-0.417 -0.415,-0.47 0.239,-0.922 0.478,-1.847 0.719,-2.771 0.062,-0.24 0.172,-0.52 0.458,-0.425 0.303,0.102 0.169,0.395 0.087,0.609 -0.233,0.595 0.105,0.959 0.458,1.374 0.54,0.629 0.972,0.847 1.54,0.01 0.422,-0.622 1.59,-0.518 1.754,-1.596 0,0.361 0.08,0.746 -0.014,1.081 -0.336,1.207 0.788,2.014 0.813,3.125 0.006,0.268 0.341,0.29 0.573,0.119 0.17,-0.122 0.413,-0.263 0.481,-0.005 0.352,1.334 0.904,0.148 1.353,0.078 0.189,0.651 0.402,1.781 0.538,1.771 1.114,-0.074 1.572,1.065 2.517,1.211 0.629,0.096 0.987,-0.162 1.05,-0.736 0.555,-0.26 0.913,1.513 1.467,0.053 0.103,0.038 0.204,0.074 0.305,0.115 1.561,0.646 3.17,0.618 4.797,0.348 0.087,0.288 0.245,0.505 0.556,0.575 0.115,0 0.322,0.018 0.327,-0.005 0.246,-1.212 1,-0.726 1.492,-0.336 0.598,0.475 1.169,0.421 1.763,0.207 1.034,-0.377 2.037,0.182 3,0.271 1.307,0.12 2.449,-0.287 3.659,-0.369 0.861,-0.057 1.435,-0.151 1.381,0.912 0.479,0.142 0.679,-1.771 1.211,-0.101 0.112,0.355 0.443,0.285 0.689,0.079 0.331,-0.277 0.728,-0.521 0.946,-0.873 0.304,-0.493 0.561,-0.387 0.769,-0.025 0.48,0.831 0.916,0.763 1.587,0.156 0.741,-0.673 1.799,-0.472 2.647,-0.391 1.331,0.125 1.497,-0.578 1.542,-1.699 0.529,0.41 1.009,1.145 1.529,-0.049 0.092,1.004 0.488,1.743 1.261,1.151 0.909,-0.696 1.696,-0.366 2.554,-0.2 0.487,0.095 0.879,0.257 1.125,-0.447 0.137,-0.39 1.063,-0.55 1.148,-0.422 0.802,1.203 1.652,-0.447 2.419,0.097 0.124,0.086 0.243,0.019 0.243,-0.129 0.006,-1.95 1.64,-2.006 2.897,-2.5 l -0.004,3.613 z m -45.842,-0.327 c -0.007,0.051 -0.012,0.101 -0.018,0.152 0.019,-0.023 0.051,-0.044 0.055,-0.07 0.002,-0.025 -0.024,-0.054 -0.037,-0.082" />
    <path id="horizon" clip-path="url(#ga_clippath)" fill-rule="evenodd" clip-rule="evenodd" fill="none" stroke="#FFFFFF" stroke-width="2.2338" stroke-miterlimit="10" d="m 46.216,61.189 c 5.122889,0.303064 10.04657,2.145729 15.227832,1.923336 4.608719,-0.41035 9.237734,0.918699 13.776299,0.04103 4.485874,-2.049345 8.33475,2.307312 12.834165,0.851206 3.948036,0.175663 7.6627,0.57197 11.686704,1.009432 2.17067,2.617855 6.33578,-0.252998 8.09699,3.068878 1.28147,1.601531 -0.44268,5.033943 2.61288,4.805298 4.05963,3.458935 7.84391,7.656612 13.10157,9.261918 4.35544,-0.107618 8.90038,0.622984 12.85479,-1.662453 2.04709,-1.002727 3.08846,-3.212751 4.99077,-4.411641 M 24.911,55.725 c 3.761868,-1.015001 8.420893,-1.002091 9.069919,3.56569 1.819618,0.151454 4.256166,-0.381297 4.933877,1.228449 2.452672,-0.264949 4.897358,0.259826 7.303204,0.668861" />
    <path id="reeds" clip-path="url(#ga_clippath)" stroke-miterlimit="10" clip-rule="evenodd" stroke-width="0.5" stroke="#3B5A2A" fill-rule="evenodd" fill="#3B5A2A" d="m 108.056,89.242 c -3.29825,0.786941 -0.9463,-1.513533 0,0 z m 3.163,-0.091 c -2.34213,1.573497 -0.57543,-2.293715 0,0 z m -5.371,-0.112 c -1.83494,0.253174 -4.05651,0.273236 -1.81202,-1.653422 0.89911,-0.08781 2.21242,0.534118 1.81202,1.653422 z m 9.632,-1.08 c -1.3452,-0.386039 0.29131,-1.521686 0,0 z M 80.386,85.145 c -2.561822,-0.709627 -0.218689,-4.466717 0,0 z m 5.222,1.336 c -0.250771,2.295475 -1.049949,-2.257607 -1.106922,0.944391 -0.176635,4.764922 -1.121657,-4.714041 -1.185828,-0.772641 -0.382749,3.576419 -1.310072,-4.676924 -1.30025,0.296375 -0.451124,4.445308 -2.261573,-5.063958 -0.677672,-2.404281 0.822698,0.145486 1.339673,-3.104092 1.742125,-0.456157 0.781467,0.336153 1.782729,-2.224746 2.107797,0.684188 0.293475,0.505611 0.535575,1.110504 0.42075,1.708125 z M 27.193,86.41 c 1.62278,-0.859055 0.82841,-5.159087 1.191531,-1.295656 0.119008,1.959786 1.005722,-3.767878 1.175719,-0.239594 0.149056,2.257678 -2.221695,3.276385 -2.36725,1.53525 z m -3.624,-0.039 c 0.37469,-1.947618 1.007717,1.559495 1.510266,-1.087266 0.181829,-0.803146 0.739538,1.316147 1.904484,-0.03448 0.85708,1.363264 -3.536692,3.782703 -3.41475,1.12175 z M 4.036,86.676 c 0.3830613,-2.404299 2.385845,-0.683115 2.424,-2.623 1.8185506,1.698191 3.780699,1.263722 5.475625,1.788594 1.491224,0.81802 0.07867,2.188145 -0.500297,0.491922 C 9.7256828,87.502506 8.5010334,86.08651 7.886,86.518 c 0.068309,-2.826059 -4.4722662,4.294463 -3.85,0.158 z m 10.818,-0.078 c -0.368611,-3.303661 3.466078,1.745533 2.541094,-1.951359 1.018863,-1.102362 0.568136,2.658199 2.346551,0.622603 C 21.066572,84.41045 21.465685,81.495149 21.68,84.71 c 1.295654,1.755613 1.131977,3.235733 -1.2035,1.911375 -0.905913,-0.120778 -2.605724,1.679516 -2.4145,-0.493375 -0.628174,1.369085 -2.383137,2.191684 -3.208,0.47 z m 16.715,-3.602 c 0.155281,2.923639 2.604936,5.02096 4.229,2.447 -0.12943,1.940562 1.360778,2.257512 1.828,0.157 2.857315,4.333354 -5.920661,2.235713 -5.739625,1.723625 C 31.638231,88.493272 30.133808,86.261251 29.36,86.362 c 0.105096,-2.200913 2.672383,1.630923 2.234,-1.355 -0.688351,-0.607496 -0.95591,-4.211252 -0.025,-2.011 z M 69.91,86.57 c 0.137281,0.235211 -0.291577,0.04636 0,0 z M 10.993,84.395 c -0.39627,0.369581 -0.03755,-0.615569 0,0 z m -0.672,29.374 c 2.101615,-0.69186 4.65071,0.13511 1.399476,4.2e-4 -0.466492,-1.4e-4 -0.932984,-2.8e-4 -1.399476,-4.2e-4 z M 38.518,88.295 c 0.256408,-0.169789 0.007,0.36402 0,0 z m 2.174,-0.003 c 0.200835,-0.12273 -0.01225,0.349173 0,0 z m -25.979,21.409 c -1.374635,0.78207 -2.131751,-0.57081 0,0 z m 1.467,-0.457 c -1.165791,0.0474 -4.660921,-0.004 -1.350125,-0.23588 L 15.531609,109.1772 16.18,109.244 Z M 55.797,89.029 c 0.0962,-4.571967 1.876351,1.602129 0,0 z M 38.66,88.246 c 0.170244,-1.321903 0.596453,-2.013034 1.246297,-0.925375 C 40.995589,85.163682 40.867255,89.539549 38.66,88.246 Z m 17.2,13.222 c -2.491343,-0.20104 -8.084465,-0.0639 -8.550055,0.29403 2.855893,0.15177 5.696047,-0.3258 8.550055,-0.29403 z m -42.64,10.01 c -2.437255,1.50275 -6.0090612,1.58438 -9.3775,1.86075 -0.9671047,-3.02505 5.0754547,0.99734 3.9545937,-2.31898 1.7733261,0.43152 3.6033303,0.38824 5.4229063,0.45823 z M 56.7,88.007 c 0.193458,-1.670875 1.012848,-4.341979 1.424,-1.336 -0.29054,-2.213274 0.82628,-0.100502 1.054,-1.231809 -0.282088,2.333647 0.24348,3.66489 1.36,0.576809 1.239363,1.55978 0.751535,2.019709 1.691,0.649 0.926786,4.114518 2.39453,-2.46541 2.414625,-0.865438 2.803059,3.911639 -5.320935,4.43086 -7.496625,2.576313 L 56.994281,88.127266 56.7,88.007 Z M 40.821,87.985 c -0.127201,-2.535973 2.009009,1.099884 3.331125,-0.691 1.661968,0.304034 1.453468,-0.01695 3.551109,0.45575 1.719499,-2.506546 3.211095,3.237889 3.002766,-0.617084 -0.455583,-1.231692 2.288783,1.600126 2.798,0.05233 0.313918,1.159634 3.790567,1.816369 0.494125,1.924875 -4.185592,0.0034 -8.432338,-0.08731 -12.708047,-0.659906 L 40.821,87.985 Z m 25.346,1.236 c 0.495382,-1.369749 -0.435915,-3.100916 1.328531,-2.430297 0.155445,-1.524422 0.701281,2.827582 1.223219,-0.423953 1.077275,-0.382845 1.46847,2.358329 1.284859,-0.61075 0.0151,-1.176281 2.521075,2.347382 2.285641,-0.711625 0.360473,-2.7641 1.173784,2.741682 0.16275,1.238625 -0.0212,1.214622 0.0768,2.395417 0.670094,1.241078 1.18302,1.728209 -0.744966,-3.509522 1.403906,-1.318078 1.552885,1.915931 -2.281005,4.114742 -2.775137,2.546699 -1.119023,-1.803701 -2.337194,1.041522 -4.379613,0.208176 -0.09846,0.286174 -0.979442,0.843026 -1.20425,0.260125 z m 83.497,12.845 c -2.10499,0.63314 -3.85695,-0.71139 -0.72847,-0.44992 0.9494,-0.5874 0.68838,0.0884 0.72847,0.44992 z m -137.042,2.383 c -4.0646667,-6.7e-4 -8.1293333,-0.001 -12.194,-0.002 3.5130978,0.90164 8.2816178,0.21106 12.194,0.002 z M 149.667,88.347 c -3.54198,1.109121 -10.18165,-0.793076 -9.44961,4.997166 0.79777,3.759309 1.85358,6.403519 5.74595,6.331006 2.89455,0.615718 4.36113,-0.190739 3.70293,-3.112649 2.5e-4,-2.738508 4.9e-4,-5.477015 7.3e-4,-8.215523 z m -6.269,11.293 c 2.76295,0.45146 0.44627,-0.631838 0,0 z M 79.75,88.294 c -1.310167,-2.913312 2.030695,-4.239524 0,0 z m 28.924,10.819 c -1.91165,-0.08134 -4.14542,0.159375 -5.861,-0.118 1.90856,0.07731 4.14983,-0.153705 5.861,0.118 z m 3.087,-0.096 c -4.06762,-0.957382 4.09734,0.98625 2.17263,-2.365 1.86733,-3.737399 -1.39107,-8.004189 -4.94038,-7.524375 -2.76881,0.414133 -7.10841,-0.393926 -7.81962,-0.27125 C 99.009763,90.132888 96.051943,88.277028 94.186,88.944 93.415824,87.046681 94.10885,81.632801 93.101,86.241 91.870512,88.264891 92.69441,82.330336 91.48,84.933 90.548832,81.820472 91.15697,87.394909 89.504781,84.127625 88.914224,82.858814 88.906231,86.189132 88.179,83.944 c -0.543535,0.998215 0.262935,6.792517 -2.377219,4.414344 -0.336436,-0.817489 0.05772,-2.890456 -0.543781,-0.876344 -0.773346,-4.302608 -0.592527,4.521016 -1.502141,-0.0178 -0.0072,-2.94721 -0.310014,-1.540778 -0.740859,0.464797 -0.386098,-1.570246 -1.038963,-4.278777 -0.999375,-0.980875 -0.770481,3.879821 -0.456807,-2.62612 -2.24925,-1.840797 -0.73548,-2.426941 -0.460821,0.258418 -1.834375,0.473672 -0.01223,1.775054 -0.301835,3.863003 -1.164,1.522 -0.239806,4.152894 -1.155638,-6.312985 -1.058,-1.020476 0.87383,2.457295 -3.422641,3.392031 0.537,3.248476 3.912617,-1.909358 7.494157,1.241021 9.356357,5.004557 2.968439,3.483896 0.151629,7.933943 -4.276357,6.529443 -3.710459,0.27752 3.347258,0.0364 4.651198,-0.0465 5.097321,-0.23802 10.336742,-0.36461 15.309802,-0.91251 3.50555,-0.227045 7.24339,-0.113737 10.473,-0.889 z M 73.28,85.905 c 0.884012,2.396449 -0.16355,1.370587 -0.639,2.293 -0.4205,-2.127403 -0.346187,-1.334694 0.639,-2.293 z m 6.47,2.389 c -1.310125,-2.917486 2.030698,-4.234199 0,0 z m -5.222,-2.087 c -2.57812,-0.956921 2.194085,-3.15575 0.088,-0.221 l -0.088,0.221 z m -0.047,2.224 c -0.154906,-1.847504 2.40876,-1.955131 0.73425,0.2655 L 74.88975,88.665469 74.481,88.431 Z m -1.678,-4.146 c -2.167408,-1.853934 1.518401,-2.935436 1.051875,0.23475 C 74.122488,86.611567 73.126358,83.228733 72.803,84.285 Z m 6.329,-0.283 c -0.480823,1.377244 -1.927753,2.178364 -1.494,4.429 -0.611177,-0.630251 -1.097901,-2.053359 -0.968,0.113 -1.484054,-1.629712 0.417626,-4.711813 0.807125,-4.78375 -0.01375,1.422897 0.211553,-3.941179 0.507375,-0.36875 0.06284,0.544372 0.693142,0.705744 1.1475,0.6105 z m 21.232,5.118 C 97.784107,89.101439 95.249018,89.221617 94.068031,88.299891 93.418881,86.307946 94.078801,81.968449 93.099,86.243 91.868435,88.270252 92.693881,82.333797 91.478,84.937 90.550058,81.824725 91.153646,87.39743 89.502781,84.131328 88.912411,82.863435 88.903752,86.192996 88.177,83.948 c -0.543546,0.998562 0.26336,6.79185 -2.377219,4.414469 -0.198552,-2.073761 1.846692,-4.047403 2.167219,-6.328469 0.751728,2.076314 0.941935,-1.162198 2.342,1.27 1.341667,-1.545903 0.988716,-2.842363 1.769,-0.2685 1.889236,1.639608 0.822458,-5.662924 1.746672,-1.323703 1.102269,0.937825 0.162148,6.215069 1.448328,4.702203 0.08998,-1.560655 1.223353,-5.275154 1.15275,-1.60275 -0.07998,2.812136 2.310184,3.857514 3.1225,2.65575 -0.100152,2.729926 1.04135,-1.004973 0.81575,1.653 z m -4.336,-0.271 c 0.571825,-2.080412 -0.702448,-2.292451 0,0 z M 40.821,87.985 c -0.433024,0.788617 -0.206127,-2.811138 -1.17375,-0.64225 -0.617614,-2.264714 -1.239933,3.341474 -1.569375,-0.56675 -0.424929,-3.014284 -1.069311,1.864571 -1.609375,-0.12275 -0.965215,0.904159 -0.427443,-2.614086 -1.796703,0.08689 -2.279147,0.122914 -4.319768,-3.641786 -1.333547,-5.766891 0.347766,-0.255099 1.271642,3.533271 1.94075,0.47475 0.886067,0.64767 2.732228,1.694207 3.623125,3.1885 2.425328,-1.04862 2.962288,-1.406123 4.757875,-0.4725 1.733106,-0.441904 2.259213,0.192988 2.734813,0.625625 C 46.771117,82.934129 46.883554,79.60879 46.909,83.41 c 0.34301,0.71648 2.549227,2.345926 2.438031,1.693406 1.367452,-2.372587 1.504503,-1.484007 1.922969,0.409594 0.780691,-1.172964 0.773583,-1.919696 1.179,0.054 0.20342,-4.016093 2.410232,-0.425016 2.642406,1.354125 1.642724,0.06255 -0.810887,-4.746668 1.603813,-1.839703 -0.22125,0.956867 2.451772,-6.525805 1.938906,-1.875297 0.03383,2.773957 0.680482,-1.373791 0.889875,1.035875 0.102611,-1.85793 0.981561,1.943549 1.091,-0.987 0.530033,-3.367509 1.758219,-0.224173 1.853141,-0.343641 0.584883,-4.080225 2.040118,4.104378 2.174609,-0.487359 1.149125,-3.295188 1.127383,0.652014 1.82125,1.509 0.799555,-2.352504 1.289348,-1.111554 0.969,0.857 1.851676,2.238622 0.986807,-4.989364 1.839031,-0.961344 0.809732,1.323036 1.364008,-2.711848 1.561969,0.183344 1.500607,-4.14976 2.213152,5.556333 -0.746,1.181 0.105054,1.839432 -0.151557,2.857962 -0.992,0.946 -0.819494,1.268745 -1.265198,2.190981 -1.438,-0.037 -0.495847,1.446689 -1.914756,-0.04821 -1.307078,2.452031 -0.600303,1.534298 -2.112379,-6.488785 -2.370438,-1.513515 C 63.176135,90.098641 61.74733,84.594068 61.561,87.938 c -0.332403,-3.123286 -1.765298,-0.545672 -2.379,0.06381 -0.09891,-1.752363 0.385091,-2.9811 -0.74525,-2.279434 -0.313212,-1.3136 -0.185449,2.374349 -0.605875,0.0365 C 57.097796,83.917373 57.154704,88.65615 56.057,87.886 55.883536,90.678075 53.279613,85.994537 52.690047,87.476562 50.380361,87.229943 50.685275,85.923029 50.711,88.802 49.331676,87.492201 49.187408,86.497336 47.065,87.841 45.351891,86.284772 43.279627,88.88983 41.182,86.776 L 40.85525,87.38125 40.821,87.985 Z m -4.246,-4.819 c 0.348837,-0.432234 -0.496057,-0.149026 0,0 z M 69.91,86.57 c -0.291778,0.04864 0.138151,0.235918 0,0 z M 29.36,86.362 c 0.499994,-2.391791 -0.300723,-3.377485 -0.945,-0.584 -0.01645,-1.546425 -0.189081,-3.884375 -0.313,-0.88 -0.736228,3.314674 -0.799763,-0.889741 -2.51575,0.825125 -0.293918,-2.709732 -1.078695,2.914254 -1.71125,-0.278125 -0.194195,1.74394 -2.987777,-0.47889 -2.595,-2.531 -0.330112,2.39355 -3.512848,3.828384 -3.685285,1.493867 0.02183,2.320706 -0.761437,1.775184 -2.436715,0.807133 0.425982,2.422147 -2.505181,2.497001 -2.152,0.135 -0.194556,2.649449 -1.526142,-1.437091 -3.088125,0.52025 C 8.2986403,84.896115 6.1117571,83.832899 5.663875,84.969922 4.1881663,84.651209 3.9650629,88.462848 3.85825,85.134375 2.6841591,81.280245 2.6234522,89.280511 1.095,84.757 -0.22919796,85.129366 0.71908933,82.298311 0.43342797,81.136951 0.43361864,79.438967 0.43380932,77.740984 0.434,76.043 4.7577054,74.366195 4.6898678,80.619855 8.9995938,78.87625 11.672104,79.425558 14.910824,81.374814 16.97,79.344 c 1.297646,2.099771 4.045414,0.611851 4.27925,0.472125 0.504735,3.238885 2.692963,-1.947913 2.366783,-1.00901 0.724499,2.23141 -0.395161,5.113261 2.383467,2.86826 0.421099,-2.051368 1.820731,-1.05412 1.6185,0.07039 -0.07513,1.721771 1.132117,-6.706606 0.986156,-1.593293 -0.07848,2.740388 2.442134,-1.895708 1.945844,1.199531 0.700742,2.472948 1.730816,6.016433 -0.88425,4.514125 L 29.566688,86.148797 29.36,86.362 Z M 10.993,84.394 c -0.03734,-0.613399 -0.394196,0.371273 0,0 z m 137.812,1.758 c -0.6694,1.59079 -1.6753,0.228212 -2.93688,1.09475 -2.89819,0.273349 -5.86192,0.984916 -8.98112,0.45625 -1.3879,2.521915 -5.32067,0.838834 -8.29875,1.765625 -4.88699,-0.776643 -10.02145,0.103206 -14.75925,-0.797625 -5.37788,0.52008 3.134,3.593147 0.317,6.958 0.50255,2.89971 -1.24175,3.574893 -3.931,3.018 1.13904,0.516923 1.87439,0.303982 0.556,0.67 9.04239,-0.658368 18.11382,-2.933044 27.17481,-1.090719 1.94599,-0.0516 6.35602,2.033369 4.68419,0.198719 -2.54001,-1.226562 -4.17324,-9.520728 0.743,-9.315 1.69946,-0.04075 8.16904,-0.216528 5.70263,-2.389625 L 148.805,86.152 l 0,0 z m -67.481,14.716 c 5.320779,1.6626 7.065539,-4.270872 3.597512,-7.53683 C 82.96177,88.946435 78.847858,88.037399 74.790031,89.497156 74.570489,87.451081 72.12504,90.96324 72.122,88.426 c -1.301864,1.076019 -1.204122,-2.022056 -2.591875,0.53175 -2.128355,-0.294887 -3.509281,1.345032 -4.39175,-1.395125 -0.902732,3.973291 -8.125693,0.149675 -8.418,1.24375 C 53.913316,89.68892 49.827493,88.852916 46.525,88.927 42.938403,89.258277 41.112017,87.830445 38.517,88.296 36.751484,87.211138 32.922276,89.926132 32.076,86.615 31.878622,89.630566 28.959773,84.3863 28.475094,87.295766 27.890274,86.153105 27.221237,88.74406 27.162,86.339 c -1.908076,1.674741 -3.321673,1.489108 -4.139906,-0.618672 -0.254973,2.784462 -2.88485,0.07614 -4.468891,1.506531 C 18.0693,84.875919 16.26956,89.44392 14.852,86.599 13.289059,88.851776 12.717289,83.227191 12.522375,87.119125 11.962033,86.027265 10.064305,87.219996 8.851625,86.57975 8.4605014,85.926063 7.8819508,87.499938 7.5,85.74 6.4008151,86.999431 3.7405299,88.637547 3.6093418,86.546189 2.5255156,84.637496 3.3572895,84.871011 2.0405469,86.249594 0.48676231,82.881839 0.22137922,86.350692 0.43152355,88.045477 0.43068236,93.512318 0.42984118,98.979159 0.429,104.446 c 4.0636667,6.7e-4 8.1273333,0.001 12.191,0.002 -3.7774516,0.93618 -9.6068381,-0.47692 -12.191,0.95457 -0.81440841,3.38581 3.8138593,0.93832 5.7288657,1.37833 3.6429567,-0.28393 7.2841133,-0.62333 10.9001343,-1.1559 -2.011235,-0.18272 -7.6394935,0.39076 -7.4636189,-0.34995 4.6031839,-0.13563 9.2721409,0.44745 13.7791189,-0.73605 2.579206,-1.55236 8.145688,-0.31965 11.853665,-1.29045 C 50.545883,101.7935 66.019811,101.71647 81.324,100.868 Z m -34.62,0.856 c 2.484106,-0.42568 7.93865,-0.37881 8.60191,-0.25729 -2.86891,0.0365 -5.730489,0.49373 -8.60191,0.25729 z M 31.274,82.271 c -1.870646,0.866985 0.293024,-2.424557 0,0 z" />
    <path id="shore" clip-path="url(#ga_clippath)" fill="none" stroke="#FFFFFF" stroke-width="1.6753" stroke-miterlimit="10" d="M17.824,105.277 c0,0,2.827-0.829,14.907-1.795c12.08-0.964,18.264-1.44,30.4-1.857c12.136-0.417,26.252-0.903,31.415-1.196 c5.166-0.292,17.203-1.229,25.144-2.044c7.941-0.817,11.151-1.515,18.13,0.003" />
    <use xlink:href="#ga_outline" overflow="visible" fill="none" stroke="#000000" stroke-width="0.2513" stroke-miterlimit="10" />
    <path id="tybee_island" fill="#5AAFD1" stroke="#000000" stroke-width="0.25" stroke-miterlimit="10" d="M132.343,99.167 c0,0.369,0.185,0.69,0.459,0.69c0.275,0,0.458-0.321,0.458-0.69c0-0.368-0.183-0.688-0.458-0.688 C132.528,98.479,132.343,98.799,132.343,99.167z" />
    <path id="st_catherines_island" fill="#5AAFD1" stroke="#000000" stroke-width="0.25" stroke-miterlimit="10" d="M126.144,109.454 c-0.138,0.229-0.094,0.55,0.137,0.688c0.23,0.138,0.413-0.044,0.413-0.413C126.694,108.947,126.556,108.856,126.144,109.454z" />
    <path id="sapelo_island" fill="#5AAFD1" stroke="#000000" stroke-width="0.25" stroke-miterlimit="10" d="M123.985,114.182 c-0.965,1.149-1.01,1.562-0.368,1.976c0.276,0.137,0.46,0,0.46-0.367c0-0.368,0.32-0.918,0.688-1.24 c0.735-0.597,0.919-1.377,0.367-1.377C124.903,113.173,124.397,113.632,123.985,114.182z" />
    <path id="st_simons_island" fill="#5AAFD1" stroke="#000000" stroke-width="0.25" stroke-miterlimit="10" d="M121.321,120.566 c0,0.459-0.229,0.872-0.505,0.872s-0.414,0.459-0.323,1.011c0.093,0.597,0.323,1.056,0.598,1.056c0.276,0,0.644-0.459,0.919-1.056 c0.23-0.551,0.595-1.011,0.78-1.011c0.78,0,0.322-1.286-0.55-1.514C121.551,119.74,121.321,119.925,121.321,120.566z" />
    <path id="cumberland_island" fill="#5AAFD1" stroke="#000000" stroke-width="0.25" stroke-miterlimit="10" d="M119.531,131.219 c-0.321,0.415-0.459,1.148-0.275,1.562c0.275,0.781,0.32,0.781,0.735,0c0.274-0.459,0.412-1.147,0.321-1.562 C120.173,130.533,120.128,130.533,119.531,131.219z" />
  </g>
</svg>