<?xml version="1.0" standalone="no"?>
<!DOCTYPE svg PUBLIC "-//W3C//DTD SVG 20010904//EN"
 "http://www.w3.org/TR/2001/REC-SVG-20010904/DTD/svg10.dtd">
<svg version="1.0" xmlns="http://www.w3.org/2000/svg"
 width="1080.000000pt" height="1080.000000pt" viewBox="0 0 1080.000000 1080.000000"
 preserveAspectRatio="xMidYMid meet">
<metadata>
Created by potrace 1.11, written by Peter Selinger 2001-2013
</metadata>
<g transform="translate(0.000000,1080.000000) scale(0.100000,-0.100000)"
fill="#000000" stroke="none">
<path d="M815 10659 c3 -79 7 -155 9 -169 9 -75 19 -111 34 -119 14 -8 16 -27
15 -126 -1 -105 1 -118 20 -135 18 -18 20 -30 18 -126 -1 -96 0 -109 19 -129
18 -19 20 -32 17 -100 -4 -92 1 -125 18 -125 21 0 24 -23 20 -124 -4 -75 -2
-97 10 -103 13 -8 22 -37 30 -93 2 -14 4 -25 4 -25 7 0 15 -137 15 -263 1 -83
2 -152 4 -152 2 0 12 4 22 10 26 14 29 -2 25 -135 -2 -88 1 -112 13 -121 8 -6
16 -24 19 -40 2 -16 6 -38 8 -49 7 -37 15 -90 19 -125 2 -19 7 -46 10 -60 3
-14 8 -52 10 -85 3 -33 8 -94 12 -135 9 -93 8 -198 -1 -228 -7 -21 -5 -22 26
-20 l34 3 -1 -45 c-1 -25 -3 -72 -4 -105 -2 -81 -2 -81 17 -101 9 -9 18 -28
20 -43 1 -14 7 -47 12 -72 5 -25 13 -70 16 -100 19 -160 23 -212 30 -351 6
-137 16 -184 40 -202 9 -6 17 -33 20 -66 11 -125 15 -148 30 -215 8 -38 17
-78 20 -88 2 -10 -5 -27 -15 -37 -31 -31 -21 -110 15 -110 7 0 16 -8 18 -17 5
-18 2 -109 -6 -193 -6 -55 7 -87 29 -69 11 9 14 8 15 -2 1 -8 3 -32 4 -54 8
-97 20 -131 62 -173 7 -7 13 -18 13 -23 0 -13 -34 -11 -48 3 -26 26 -24 -6 3
-57 23 -41 27 -57 18 -66 -6 -6 -9 -18 -6 -25 4 -11 10 -11 33 1 34 18 41 12
30 -25 -5 -16 -7 -37 -5 -47 2 -10 4 -22 4 -27 1 -4 10 -6 21 -3 19 5 20 1 15
-54 -5 -70 0 -89 25 -89 16 0 18 -7 14 -52 -3 -29 -6 -63 -8 -75 -3 -16 3 -24
25 -33 16 -7 29 -17 29 -22 0 -6 9 -23 21 -39 11 -16 55 -98 96 -182 85 -171
90 -197 58 -318 -10 -37 -15 -74 -12 -83 4 -9 5 -17 4 -19 -1 -1 23 -25 53
-52 31 -28 68 -65 83 -84 38 -48 42 -42 -188 -258 -42 -40 -73 -77 -70 -83 3
-5 2 -10 -3 -10 -20 0 -37 -87 -47 -244 -3 -49 -10 -96 -14 -105 -5 -9 -10
-20 -11 -26 -1 -5 -6 -20 -11 -33 -5 -13 -9 -27 -9 -31 0 -5 -10 -23 -23 -42
-13 -19 -34 -63 -47 -99 -20 -55 -24 -80 -23 -174 1 -98 0 -112 -18 -123 -13
-10 -16 -19 -10 -31 29 -57 40 -95 35 -119 -7 -38 31 -81 64 -70 4 1 6 6 4 10
-1 5 2 6 7 2 14 -8 29 -69 37 -145 8 -79 19 -110 39 -110 11 0 14 -7 11 -22
-24 -135 -29 -150 -51 -158 -13 -5 -26 -13 -29 -19 -12 -19 -18 -90 -8 -106 8
-15 10 -15 27 2 18 17 19 17 12 0 -4 -11 -10 -31 -13 -45 -3 -15 -9 -38 -14
-52 -5 -14 -11 -44 -14 -68 -3 -24 -7 -46 -10 -50 -4 -7 -19 -166 -17 -187 0
-5 2 -31 5 -57 4 -46 4 -47 -21 -37 -14 5 -28 7 -31 4 -7 -7 26 -72 46 -92 28
-28 181 -345 192 -398 1 -5 5 -14 10 -20 4 -5 15 -35 25 -65 10 -30 21 -59 25
-65 5 -5 9 -13 9 -17 1 -4 3 -13 6 -20 15 -44 46 -147 50 -166 3 -12 7 -32 11
-45 11 -45 17 -72 18 -87 1 -8 10 -38 20 -67 17 -52 68 -109 87 -97 5 3 9 1 9
-4 0 -12 38 -22 101 -29 46 -4 84 -10 84 -13 0 0 38 -3 85 -5 84 -4 171 -9
325 -20 44 -2 125 -7 180 -10 55 -3 112 -8 128 -10 16 -2 27 2 27 8 0 9 3 9 8
1 4 -6 25 -11 47 -12 22 0 78 -3 125 -6 169 -11 286 -19 345 -21 33 -2 60 -4
60 -4 0 -1 41 -4 90 -6 101 -5 192 -10 310 -20 44 -3 103 -8 130 -9 125 -9
244 -18 285 -22 62 -6 244 -16 307 -18 29 0 53 -3 53 -6 0 -3 37 -5 83 -6 45
0 136 -4 202 -8 66 -4 154 -9 195 -12 132 -7 233 -14 295 -19 33 -3 98 -8 145
-10 47 -3 117 -8 155 -11 39 -2 104 -7 145 -9 41 -3 100 -7 130 -9 30 -3 102
-7 160 -11 58 -3 123 -7 145 -10 22 -2 92 -7 155 -10 63 -3 149 -8 190 -11 41
-2 113 -6 160 -9 361 -19 404 -23 433 -36 20 -9 26 -19 26 -43 0 -28 3 -52 13
-96 2 -8 8 -22 13 -30 14 -22 19 -49 20 -105 0 -39 -5 -55 -23 -73 -32 -32
-29 -53 9 -50 25 2 32 -1 35 -16 6 -38 57 -55 159 -53 109 3 116 13 131 187 2
30 6 69 8 85 9 65 19 162 19 190 1 65 -3 76 -20 73 -15 -2 -17 3 -14 27 9 70
7 80 -16 83 -13 2 -23 9 -24 15 0 7 -2 19 -3 27 -2 8 0 25 5 38 7 19 12 21 28
12 27 -14 31 -13 31 10 0 11 -4 20 -8 20 -12 0 -46 77 -46 104 0 62 41 105
109 113 47 6 53 10 60 41 11 52 35 65 113 63 34 -1 42 -4 42 -20 0 -25 7 -29
72 -41 38 -7 61 -19 80 -40 24 -24 33 -28 63 -23 25 4 49 0 78 -15 70 -34 111
-50 142 -56 68 -14 82 -17 120 -23 55 -9 145 -9 177 0 16 4 34 20 43 36 13 26
13 34 -1 73 -21 57 -24 200 -6 262 8 27 25 60 39 74 31 31 25 45 -20 53 -21 3
-40 8 -43 12 -12 12 8 45 70 109 75 79 84 99 60 136 -9 15 -13 24 -9 20 11
-11 35 11 35 32 0 9 -8 32 -17 51 -12 24 -18 63 -19 132 -2 53 0 97 4 97 4 0
8 16 9 36 1 19 7 42 14 50 6 8 9 14 5 14 -4 0 0 13 8 29 9 16 12 31 9 35 -4 3
-1 6 5 6 7 0 12 5 12 12 0 30 133 208 146 195 2 -2 -2 -22 -10 -45 -15 -42
-10 -57 17 -47 21 9 40 50 40 86 0 35 -27 63 -55 56 -46 -12 -22 232 28 278
27 25 31 57 9 75 -40 33 -2 86 67 96 86 13 108 21 108 39 0 7 6 18 14 24 8 7
13 20 11 29 -1 9 2 25 7 34 5 10 5 18 1 18 -4 0 -9 15 -10 33 -1 17 -11 39
-21 47 -19 15 -19 40 -1 40 6 0 21 -12 34 -26 37 -40 61 -12 32 39 -6 12 -15
24 -18 27 -16 14 -17 56 -1 75 31 37 113 71 176 73 76 3 106 21 106 66 0 46
-40 87 -123 126 -37 18 -76 45 -87 60 -33 46 -23 103 24 141 20 16 21 16 31
-8 9 -23 16 -26 60 -26 28 0 55 -3 60 -7 19 -16 140 -56 162 -54 68 5 69 28 3
94 -61 61 -58 81 20 121 29 15 57 34 61 42 25 44 -44 152 -122 193 -17 8 -57
20 -89 25 -61 10 -129 45 -130 67 0 6 -4 12 -9 12 -14 0 -25 50 -27 120 -3
107 -3 110 -19 110 -9 0 -19 10 -24 21 -10 28 4 117 22 138 29 34 27 49 -16
98 -46 53 -84 117 -91 154 -3 13 -5 24 -6 24 -1 0 -4 14 -6 30 -3 17 -9 32
-15 33 -5 2 -9 10 -9 19 0 15 -44 80 -69 101 -8 6 -12 12 -9 12 10 0 -104 104
-137 125 -36 24 -108 59 -116 57 -3 0 -23 17 -44 39 -22 21 -35 39 -30 39 6 0
5 4 -1 8 -7 4 -15 25 -18 46 -4 21 -9 48 -11 60 -3 12 -7 64 -10 116 -15 323
-16 332 -60 352 -22 10 -84 102 -89 132 -1 6 -10 32 -20 58 -14 35 -17 59 -11
90 3 24 7 65 7 92 0 54 -12 67 -67 74 -36 4 -48 14 -52 44 -5 29 -21 38 -49
28 -12 -5 -35 -5 -51 -1 -41 12 -124 57 -157 86 -16 14 -33 25 -37 25 -10 0
-179 169 -179 179 0 3 -11 18 -24 32 -39 42 -136 210 -136 236 0 25 -5 28 -62
38 -43 7 -54 28 -63 122 -6 73 -39 162 -73 199 -28 29 -43 60 -37 76 10 26
-58 82 -167 138 -60 31 -105 70 -117 102 -7 20 -15 24 -38 21 -66 -10 -162
151 -143 242 6 28 0 36 -19 25 -30 -16 -38 -12 -49 20 -13 36 -88 116 -162
173 -30 23 -57 44 -60 47 -10 10 -111 70 -119 70 -15 0 -40 56 -31 70 16 26
11 31 -24 25 -43 -8 -94 14 -144 64 -47 46 -62 73 -55 100 4 18 1 21 -23 22
-27 0 -34 10 -92 127 -60 122 -67 143 -60 187 3 18 -3 20 -56 21 -70 1 -84 14
-81 80 1 24 -2 47 -7 50 -4 3 -8 14 -8 25 0 27 -36 100 -86 175 -41 61 -43 67
-38 119 l6 55 -30 0 c-50 0 -90 72 -87 155 2 43 -2 53 -26 76 -30 28 -96 50
-164 55 -122 8 -173 22 -160 44 7 11 -25 51 -36 44 -20 -12 -70 20 -142 88
-75 72 -137 118 -160 118 -40 0 -276 202 -278 239 0 9 -2 29 -3 44 -1 16 2 31
6 33 4 3 8 12 8 21 0 19 51 127 62 131 4 2 8 9 8 16 0 20 98 132 223 256 87
85 113 117 105 127 -5 7 -13 12 -16 11 -4 0 -9 0 -12 1 -10 3 -166 12 -305 17
-77 3 -1084 7 -2238 10 l-2098 6 6 -143z m4325 -5453 c0 -2 -9 -6 -20 -9 -11
-3 -18 -1 -14 4 5 9 34 13 34 5z m-2440 -86 c0 -5 -4 -10 -10 -10 -5 0 -10 5
-10 10 0 6 5 10 10 10 6 0 10 -4 10 -10z m3238 -35 c1 -19 -3 -25 -19 -25 -20
0 -19 8 4 38 12 16 12 16 15 -13z m162 -17 c0 -5 -15 -8 -32 -8 l-33 0 25 20
c23 18 39 13 40 -12z m-303 -4 c-3 -3 -12 -4 -19 -1 -8 3 -5 6 6 6 11 1 17 -2
13 -5z m1473 -264 c0 -5 -9 -14 -20 -20 -22 -12 -23 -10 -14 14 7 17 34 22 34
6z m177 -106 c-12 -12 -25 7 -19 28 l5 22 10 -22 c6 -12 7 -25 4 -28z m1098 6
c3 -5 1 -10 -4 -10 -6 0 -11 5 -11 10 0 6 2 10 4 10 3 0 8 -4 11 -10z m-275
-60 c0 -5 -7 -7 -15 -4 -8 4 -15 8 -15 10 0 2 7 4 15 4 8 0 15 -4 15 -10z"/>
<path d="M9916 3879 c-15 -37 -11 -61 14 -84 39 -36 83 29 61 88 -15 40 -58
37 -75 -4z"/>
<path d="M9428 3045 c-29 -28 -30 -58 -3 -84 13 -13 17 -13 33 5 18 19 20 62
3 91 -6 11 -13 8 -33 -12z"/>
<path d="M9325 2730 c-18 -7 -69 -59 -115 -116 -44 -55 -45 -114 -4 -133 14
-6 29 -11 34 -11 8 0 20 25 20 43 -1 17 34 72 66 103 18 19 30 34 27 34 -4 0
-2 5 5 12 16 16 15 53 0 66 -7 5 -22 6 -33 2z"/>
<path d="M9045 2186 c-11 -8 -21 -31 -24 -57 -4 -33 -12 -47 -28 -54 -39 -17
-49 -66 -27 -128 8 -23 22 -47 31 -54 24 -18 63 14 98 82 18 33 43 65 62 77
19 11 33 28 33 39 0 35 -28 76 -64 93 -41 20 -57 20 -81 2z"/>
<path d="M8914 1318 c-27 -13 -64 -86 -64 -127 0 -39 25 -91 45 -91 16 0 62
91 66 130 3 31 -11 100 -20 99 -3 0 -16 -5 -27 -11z"/>
</g>
</svg>
