<?xml version="1.0" encoding="utf-8"?>
<!DOCTYPE svg PUBLIC "-//W3C//DTD SVG 1.1//EN" "http://www.w3.org/Graphics/SVG/1.1/DTD/svg11.dtd">
<svg xmlns="http://www.w3.org/2000/svg"
    xmlns:xlink="http://www.w3.org/1999/xlink" width="114.54509" height="134.67732" viewBox="0 0 114.54509 134.67732" preserveAspectRatio="xMidYMid meet">
    <style>
    @media (prefers-color-scheme:light){
        #ga_outline {stroke:#777;stroke-width:2;}
    }
    @media (prefers-color-scheme:dark){
        #ga_outline {stroke:#fff;stroke-width:2;}
    }
    </style>
    <g id="EPD_Logo" transform="translate(-19,-12)">
        <defs>
            <path id="ga_outline" d="M19.064,15.302c0.044,1.469,0.274,2.572,0.504,2.48c0.184-0.138,0.322,0.598,0.183,1.608 c-0.091,1.01,0.046,1.745,0.229,1.606c0.23-0.136,0.367,0.597,0.23,1.607c-0.092,1.011,0.045,1.746,0.275,1.607 c0.184-0.137,0.321,0.459,0.184,1.378c-0.093,0.918,0,1.516,0.23,1.378c0.276-0.138,0.367,0.459,0.229,1.377 c-0.091,0.918-0.046,1.561,0.137,1.47c0.414-0.275,0.963,5.647,0.596,6.292c-0.23,0.321-0.092,0.367,0.275,0.136 c0.412-0.274,0.506,0.094,0.367,1.517c-0.092,1.01-0.046,1.792,0.139,1.699c0.412-0.275,1.421,8.404,1.053,9.002 c-0.23,0.366-0.137,0.412,0.276,0.182c0.414-0.274,0.505,0.094,0.367,1.516c-0.092,1.01-0.046,1.791,0.138,1.654 c0.367-0.184,0.963,4.18,1.055,7.485c0,1.286,0.183,2.25,0.413,2.113c0.184-0.092,0.322,0.368,0.321,1.102 c0,0.689,0.184,1.976,0.412,2.801c0.276,0.828,0.276,1.378,0.138,1.287c-0.183-0.138-0.366,0.183-0.366,0.643 c0,0.459,0.183,0.733,0.458,0.597c0.229-0.184,0.321,0.597,0.184,1.928c-0.185,1.332-0.093,1.929,0.136,1.562 c0.277-0.458,0.414-0.183,0.414,0.827c0,0.781,0.184,1.607,0.459,1.747c0.229,0.136,0.458,0.503,0.458,0.732 c0,0.276-0.275,0.322-0.55,0.138c-0.46-0.276-0.46-0.231-0.046,0.367c0.321,0.368,0.413,0.872,0.229,1.057 c-0.183,0.23-0.045,0.23,0.321,0c0.506-0.274,0.596-0.138,0.415,0.598c-0.184,0.642-0.093,0.917,0.182,0.733 c0.322-0.229,0.415,0.093,0.276,0.874c-0.138,0.734-0.046,1.102,0.23,0.918c0.275-0.184,0.366,0.183,0.229,0.963 c-0.139,0.689-0.14,1.104,0,0.966c0.229-0.23,1.01,0.963,1.974,2.984c0.275,0.642,0.689,1.514,0.919,1.929 c0.229,0.504,0.229,1.285-0.093,2.066c-0.414,1.103-0.322,1.378,0.688,2.205c0.643,0.551,1.194,1.148,1.194,1.423 c0,0.275-0.874,1.24-1.975,2.158c-1.929,1.608-2.159,2.203-2.159,5.097c-0.046,0.736-0.46,2.064-0.966,2.894 c-0.688,1.057-0.918,2.113-0.78,3.306c0.092,1.01-0.047,1.699-0.23,1.56c-0.23-0.137-0.185,0.184,0.091,0.644 c0.275,0.506,0.367,1.057,0.23,1.194c-0.139,0.138,0,0.367,0.32,0.598c0.367,0.23,0.46,0.138,0.184-0.322 c-0.275-0.505-0.229-0.551,0.229-0.092c0.368,0.321,0.642,1.286,0.642,2.157c0.047,0.874,0.23,1.471,0.459,1.288 c0.229-0.138,0.277,0.229,0.139,0.873c-0.184,0.596-0.322,1.285-0.322,1.469c0,0.229-0.184,0.275-0.368,0.137 c-0.183-0.091-0.412,0.23-0.412,0.781c-0.093,0.827,0,0.874,0.366,0.322c0.414-0.551,0.459-0.506,0.185,0.229 c-0.598,1.883-1.059,4.915-0.783,5.833c0.184,0.734,0.092,0.871-0.413,0.551c-0.415-0.23-0.368,0,0.184,0.734 c1.422,2.021,3.718,7.624,4.315,10.564c0.596,3.075,0.596,3.075,7.622,3.444c3.582,0.185,7.118,0.415,7.899,0.461 c0.78,0.044,3.856,0.276,6.889,0.416c3.029,0.183,6.245,0.414,7.117,0.505c0.873,0.092,4.087,0.322,7.118,0.461 c3.031,0.138,7.99,0.461,11.02,0.69c4.778,0.368,12.355,0.829,18.37,1.151c1.24,0.045,1.791,0.275,1.698,0.688 c-0.092,0.321,0.093,1.196,0.415,1.929c0.411,1.012,0.411,1.425-0.093,2.067c-0.458,0.504-0.458,0.642-0.045,0.413 c0.321-0.183,0.55-0.093,0.549,0.322c0,0.414,0.552,0.644,1.608,0.644c1.332,0,1.608-0.184,1.654-0.965 c0-0.55,0.184-2.02,0.368-3.352c0.229-1.516,0.185-2.297-0.092-2.112c-0.275,0.183-0.367-0.14-0.23-0.689 c0.185-0.551,0.093-0.919-0.137-0.735c-0.23,0.138-0.413-0.184-0.413-0.735c0-0.645,0.184-0.874,0.598-0.645 c0.367,0.278,0.367,0.141-0.047-0.411c-1.01-1.241-0.136-2.938,1.425-2.664c0.183,0,0.322-0.274,0.322-0.642 c0-0.415,0.458-0.689,1.194-0.689c0.641,0,1.055,0.183,0.917,0.367c-0.091,0.183,0.229,0.413,0.781,0.413 c0.55,0.047,1.055,0.323,1.147,0.6c0.091,0.228,0.368,0.319,0.597,0.183c0.275-0.138,0.688-0.045,1.01,0.185 c0.964,0.78,5.051,1.469,5.693,0.919c0.322-0.277,0.46-0.688,0.276-0.918c-0.551-0.967-0.458-3.675,0.185-4.319 c0.596-0.549,0.551-0.642-0.045-0.642c-1.057,0-0.918-0.597,0.414-1.836c0.873-0.827,1.01-1.193,0.598-1.469 c-0.46-0.277-0.46-0.368,0-0.368c0.321,0,0.458-0.229,0.321-0.46c-0.781-1.285-0.642-3.581,0.321-5.6 c1.012-2.067,2.665-3.629,2.022-1.883c-0.275,0.642-0.186,0.688,0.229,0.275c0.551-0.551,0.137-1.699-0.504-1.286 c-0.23,0.138-0.322-0.644-0.229-1.701c0.091-1.101,0.413-2.02,0.688-2.112c0.368-0.137,0.368-0.366,0-0.782 c-0.597-0.687,0.184-1.375,1.562-1.375c0.597,0,0.917-0.367,1.011-1.286c0.045-0.688-0.093-1.24-0.322-1.24 c-0.275,0-0.321-0.229-0.138-0.503c0.184-0.368,0.413-0.322,0.688,0.09c0.229,0.369,0.413,0.414,0.413,0.185 c0-0.275-0.228-0.736-0.503-1.012c-0.644-0.642,1.147-1.928,2.525-1.791c1.607,0.186,1.47-1.515-0.184-2.066 c-1.606-0.597-2.112-1.698-1.149-2.663c0.507-0.505,0.69-0.551,0.69-0.138c0,0.321,0.183,0.505,0.415,0.368 c0.229-0.139,0.962,0.046,1.698,0.413c1.423,0.734,2.572,0.369,1.423-0.459c-1.055-0.734-0.964-1.469,0.14-1.837 c0.504-0.137,0.871-0.504,0.779-0.779c-0.183-1.057-1.469-2.205-2.479-2.205c-1.47,0-2.571-1.286-2.341-2.802 c0.138-0.689,0.046-1.194-0.183-1.056c-0.185,0.136-0.369-0.277-0.369-0.919c0-0.643,0.229-1.287,0.459-1.423 c0.276-0.184,0.092-0.597-0.413-1.056c-0.505-0.414-1.009-1.379-1.102-2.067c-0.184-1.563-2.34-3.95-4.086-4.548 c-1.516-0.551-1.882-1.653-1.928-5.694c-0.045-1.929-0.229-2.756-0.551-2.617c-0.458,0.183-1.882-2.802-1.699-3.537 c0.369-1.699,0.323-2.067-0.552-2.067c-0.503,0-0.871-0.275-0.78-0.596c0.046-0.368-0.091-0.505-0.321-0.321 c-0.963,0.595-4.179-1.654-5.969-4.18c-1.01-1.424-1.745-2.755-1.653-2.939c0.138-0.184-0.136-0.321-0.596-0.275 c-0.597,0.045-0.827-0.367-0.916-1.746c-0.094-1.01-0.507-2.066-0.874-2.341c-0.414-0.323-0.597-0.735-0.459-1.011 c0.137-0.23-0.644-0.918-1.792-1.471c-1.103-0.551-1.929-1.239-1.791-1.469c0.183-0.23,0-0.275-0.367-0.138 c-0.782,0.275-2.342-2.387-1.837-3.169c0.138-0.275,0.045-0.321-0.229-0.137c-0.321,0.184-0.552,0.09-0.552-0.185 c0-0.643-2.156-2.663-3.809-3.49c-0.736-0.414-1.148-0.918-0.965-1.194c0.184-0.321,0.138-0.367-0.183-0.184 c-0.597,0.366-2.938-1.516-2.572-2.113c0.139-0.23,0.046-0.321-0.184-0.275c-0.274,0.091-0.504-0.046-0.551-0.322 c-0.045-0.275-0.459-1.101-0.963-1.882c-0.459-0.781-0.689-1.561-0.504-1.746c0.183-0.183,0.137-0.321-0.138-0.275 c-1.102,0.229-1.653-0.046-1.563-0.826c0.139-0.965-0.411-2.343-1.33-3.399c-0.368-0.458-0.55-1.101-0.368-1.515 c0.139-0.414,0.092-0.597-0.183-0.459c-0.551,0.321-1.516-1.516-1.195-2.296c0.277-0.734-1.101-1.331-3.167-1.378 c-0.872,0-1.332-0.23-1.24-0.597c0.047-0.368-0.091-0.506-0.321-0.368c-0.229,0.138-1.011-0.322-1.744-1.102 c-0.689-0.735-1.423-1.378-1.608-1.378c-0.871,0-3.994-2.619-4.04-3.353c0-1.562,1.24-3.766,3.079-5.419 c1.01-0.917,1.974-1.928,2.158-2.205c0.229-0.366-7.302-0.506-28.839-0.51l-29.16-0.005L19.064,15.302z"/>
        </defs>
        <clipPath id="ga_clippath">
            <use xlink:href="#ga_outline" overflow="hidden"/>
        </clipPath>
        <path id="sky" clip-path="url(#ga_clippath)" fill-rule="evenodd" clip-rule="evenodd" fill="#C8E3E8" d="M6.465,0.214 C53.844,0.223,101.221,0.235,148.6,0.218c0.902,0,1.105,41.372,1.1,42.276c-0.043,8.063-0.028,16.126-0.029,24.19 c-2.013,0.709-2.952,2.556-4.246,4.027c-0.11,0.125-0.071,0.383-0.102,0.582c-0.059,0.365-0.205,0.655-0.519,0.9 c-1.732,1.357-2.716,3.499-4.751,4.542c-0.803,0.413-1.077,1.282-1.458,1.954c-0.877,1.545-2.678,1.056-3.881,2.066 c-1.218,1.022-3.077,1.215-4.863,1.154c-1.458-0.051-2.934-0.011-4.404-0.051c-0.839-0.023-1.815,0.221-2.493-0.12 c-1.969-0.997-4.086-1.794-5.803-3.204c-2.252-1.847-4.381-3.844-6.546-5.797c-0.38-0.345-0.776-0.645-1.275-0.504 c-1.043,0.295-1.149-0.265-1.049-1.052c0.058-0.474,0.181-0.942,0.216-1.417c0.034-0.468,0.176-1.077-0.351-1.305 c-1.1-0.478-1.649-1.483-2.423-2.276c-0.432-0.447-0.927-1.267-1.462-0.044c-0.11,0.252-0.392,0.205-0.643,0.143 c-1.373-0.333-2.896-0.236-3.918-1.521c-0.27-0.34-0.732-0.317-1.189-0.362c-1.495-0.149-3.101,0.701-4.489-0.461 c-0.177-0.148-0.384-0.038-0.545,0.098c-1.074,0.896-2.069,0.511-3.052-0.183c-0.386-0.272-0.805-0.708-1.29-0.427 c-1.031,0.599-2.188,0.326-3.269,0.56c-0.716,0.154-1.635,0.317-2.241-0.096c-1.468-1.012-3.32-0.795-4.803-1.683 c-0.29-0.172-0.664-0.15-0.918,0.056c-0.868,0.708-1.884,0.544-2.873,0.558c-0.477,0.01-0.969-0.069-1.364,0.311 c-0.608,0.584-1.328,0.492-2.028,0.261c-1.229-0.403-2.548-0.281-3.763-0.613c-1.124-0.305-2.037,0.554-3.089,0.293 c-1.861-0.461-3.769-0.135-5.667-0.413c-2.028-0.297-4.128-0.499-6.216-0.325c-0.496,0.04-1.011-0.022-1.371-0.344 c-1.589-1.417-3.494-1.122-5.36-1.057c-0.226-0.303-0.576-0.207-0.871-0.294c-1.325-0.39-2.73,0.118-4.017-0.329 c-0.87-0.298-1.635-0.522-2.531-0.085c-0.421,0.206-1.096,0.185-0.774-0.618c0.229-0.57-0.02-0.559-0.427-0.664 c-0.925-0.24-1.801-0.344-2.653,0.228c-0.582,0.391-1.054,0.282-1.341-0.401c-0.41-0.976-1.302-1.763-1.141-2.968 c0.038-0.297-0.184-0.635-0.465-0.613c-1.508,0.121-2.996-0.696-4.504-0.1c-1.051,0.417-2.147,0.413-3.178,0.107 c-1.474-0.433-2.932-0.959-2.703-3.029c0.063-0.57-0.213-1.302-0.956-1.327c-1.592-0.056-3.223-0.348-4.771,0.167 c-1.075,0.357-2.05-0.01-3.056-0.121c-0.583-0.065-0.776-0.558-0.807-1.162c-0.086-1.752-2.561-2.969-4.044-1.968 c-0.648,0.439-1.293,0.488-1.927,0.222c-0.902-0.377-1.798-0.632-2.789-0.604c-0.563,0.018-0.839-0.14-0.597-0.889 c0.498-1.537,1.395-2.691,2.676-3.633C5.793,42.49,6.368,0.93,6.465,0.214"/>
        <circle id="sun" clip-path="url(#ga_clippath)" fill="#F9E04B" stroke="#FFFFFF" stroke-width="0.5" stroke-miterlimit="10" cx="46.358" cy="58.812" r="14.523"/>
        <polygon id="water" clip-path="url(#ga_clippath)" fill-rule="evenodd" clip-rule="evenodd" fill="#5AAFD1" points="13.892,102.581 76.067,99.799 101.941,97.199 137.123,96.274 137.857,151.931 15,151.909 "/>
        <path clip-path="url(#ga_clippath)" fill-rule="evenodd" clip-rule="evenodd" fill="#B0C494" d="M149.667,86.903 c-0.593,0.118-0.697-0.354-0.862-0.751c-0.491,0.234-0.178,0.773-0.479,1.082c-0.439,0.19-0.3-0.885-0.908-0.462 c-0.031,0.022-0.412-0.503-0.392,0.15c0.009,0.248-0.109,0.59-0.335,0.568c-0.55-0.05-1.104-0.624-1.621,0.076 c-0.818-0.982-1.45,0.31-2.255,0.21c-0.652-0.081-1.396,0.752-1.982-0.248c-0.074-0.13-0.284-0.095-0.429,0.012 c-1.135,0.835-2.295,0.783-3.517,0.162c-0.339-0.171-0.156,0.329-0.31,0.439c-0.347,0.248-0.362,1.443-1.17,0.417 c-0.048-0.062-0.278-0.078-0.297-0.047c-0.835,1.549-2.247,0.594-3.333,0.629c-0.895,0.028-1.762-0.315-2.648,0.239 c-0.277,0.175-0.778,0.063-1.161-0.008c-2.443-0.442-4.89-0.221-7.342-0.24c-1.681-0.011-3.534,0.371-5.218-0.556 c-0.279-0.153-1.371-0.104-1.579,0.095c-0.699,0.659-1.475,0.398-2.211,0.523c-0.134-0.012-0.267-0.022-0.399-0.036 c0.031-0.475-0.326-0.673-0.644-0.901c-0.179,0.419-0.832,0.563-0.685,1.176c-0.579-0.395-1.201-0.351-1.834-0.184 c-0.387-0.763-1.107-0.753-1.705,0.023c-0.168-0.075-0.336-0.15-0.503-0.227c0.277-1.069-0.509-1.447-1.25-1.623 c-0.82-0.194-1.38,0.228-1.399,1.174c-0.004,0.174-0.156,0.348-0.239,0.521c-1.022,0.449-1.212-0.422-1.551-1.119 c-0.226,0.582-0.09,1.301-0.927,1.247l-0.017,0.002c-0.025-0.049-0.058-0.091-0.098-0.127c-0.006-0.422,0.082-0.854-0.194-1.389 c-0.076,0.426-0.13,0.723-0.186,1.045c-0.291-0.21-0.467-0.454-0.527-0.789c-0.053-0.289,0.381-0.835-0.27-0.81 c-0.471,0.016-0.293,0.57-0.362,0.898c-0.034,0.165-0.079,0.305-0.319,0.341c-0.197-0.252-0.401-0.748-0.623-0.755 c-1.116-0.044-1.057-0.855-1.176-1.581c-0.141-0.853-0.525-1.677-0.265-2.582c0.085-0.289-0.156-0.417-0.415-0.47 c0.239-0.922,0.478-1.847,0.719-2.771c0.062-0.24,0.172-0.52,0.458-0.425c0.303,0.102,0.169,0.395,0.087,0.609 c-0.233,0.595,0.105,0.959,0.458,1.374c0.54,0.629,0.972,0.847,1.54,0.01c0.422-0.622,1.59-0.518,1.754-1.596 c0,0.361,0.08,0.746-0.014,1.081c-0.336,1.207,0.788,2.014,0.813,3.125c0.006,0.268,0.341,0.29,0.573,0.119 c0.17-0.122,0.413-0.263,0.481-0.005c0.352,1.334,0.904,0.148,1.353,0.078c0.189,0.651,0.402,1.781,0.538,1.771 c1.114-0.074,1.572,1.065,2.517,1.211c0.629,0.096,0.987-0.162,1.05-0.736c0.555-0.26,0.913,1.513,1.467,0.053 c0.103,0.038,0.204,0.074,0.305,0.115c1.561,0.646,3.17,0.618,4.797,0.348c0.087,0.288,0.245,0.505,0.556,0.575 c0.115,0,0.322,0.018,0.327-0.005c0.246-1.212,1-0.726,1.492-0.336c0.598,0.475,1.169,0.421,1.763,0.207 c1.034-0.377,2.037,0.182,3,0.271c1.307,0.12,2.449-0.287,3.659-0.369c0.861-0.057,1.435-0.151,1.381,0.912 c0.479,0.142,0.679-1.771,1.211-0.101c0.112,0.355,0.443,0.285,0.689,0.079c0.331-0.277,0.728-0.521,0.946-0.873 c0.304-0.493,0.561-0.387,0.769-0.025c0.48,0.831,0.916,0.763,1.587,0.156c0.741-0.673,1.799-0.472,2.647-0.391 c1.331,0.125,1.497-0.578,1.542-1.699c0.529,0.41,1.009,1.145,1.529-0.049c0.092,1.004,0.488,1.743,1.261,1.151 c0.909-0.696,1.696-0.366,2.554-0.2c0.487,0.095,0.879,0.257,1.125-0.447c0.137-0.39,1.063-0.55,1.148-0.422 c0.802,1.203,1.652-0.447,2.419,0.097c0.124,0.086,0.243,0.019,0.243-0.129c0.006-1.95,1.64-2.006,2.897-2.5L149.667,86.903z M103.825,86.576c-0.007,0.051-0.012,0.101-0.018,0.152c0.019-0.023,0.051-0.044,0.055-0.07 C103.864,86.633,103.838,86.604,103.825,86.576"/>
        <g id="reeds-1" clip-path="url(#ga_clippath)" fill-rule="evenodd" clip-rule="evenodd" fill="#3B5A2A" stroke="#3B5A2A" stroke-width="0.5" stroke-miterlimit="10">
            <path d=" M31.274,82.271c-0.093,0.241-0.308,0.25-0.515,0.274c-0.555-0.31-0.206-0.781-0.21-1.187 C31.449,81.138,31.445,81.637,31.274,82.271"/>
            <path d=" M81.324,100.868c0.881-0.047,1.764-0.021,2.646-0.027c2.179-0.019,3.248-1.546,2.76-3.678c-0.38-1.649-1.123-3.04-2.195-4.316 c-0.502-0.6-0.929-1.242-1.197-2.036c-0.38-1.131-1.646-1.314-2.572-1.395c-0.911-0.08-1.329-0.482-1.765-1.089 c-0.745,0.823-1.741,0.939-2.757,1.007c-0.316,0.02-0.651-0.013-0.945,0.084c-0.84,0.275-0.992-0.168-0.966-0.847 c-0.281,0.212-0.541,0.472-0.851,0.625c-0.823,0.398-1.513,0.478-1.36-0.77c-1.156,1.234-0.865-0.642-1.413-0.646 c-0.413,1.168-1.678,1.607-3.158,1.097c-0.281-0.097-0.129,0.24-0.2,0.242c-0.397,0.015-0.737,0.769-1.183,0.102 c-0.25-0.534-0.497-1.068-0.747-1.603c-0.192-0.062-0.41-0.139-0.455,0.16c-0.188,1.263-0.764,1.5-2.099,1.419 c-0.896-0.055-2.03,0.103-2.952,0.072c-0.739-0.026-1.693-0.132-2.48-0.448c-0.321-0.127-0.203-0.788-0.735-0.814l-0.003-0.004 c0.125,0.579,0.123,1.113-0.557,1.351c-0.28,0.097-0.326-0.11-0.343-0.324c-0.074,0.014-0.144-0.001-0.208-0.042 c-1.064,0.09-2.112,0.214-3.199,0.063c-0.496-0.067-1.235-0.427-1.69,0.331c-0.068,0.116-0.634,0.118-0.764-0.02 c-1.01-1.076-2.512-0.586-3.411-0.435c-1.241,0.209-2.315-0.586-3.458-0.12c-0.979,0.401-1.641-0.157-2.248-0.821 c-0.016,0.1-0.031,0.201-0.046,0.302c-0.016,0.165-0.044,0.166-0.082,0.004c-0.019-0.078-0.04-0.157-0.06-0.235 c-0.664,0.004-1.293,0.353-1.972,0.189l-0.028,0.042c-0.027,0.163-0.065,0.177-0.114,0.008c-0.071-0.11-0.141-0.221-0.211-0.331 c-1.509-0.252-2.912,0.702-4.457,0.348c-0.953-0.218-1.487-0.715-1.773-1.698c-0.211,0.458-0.098,0.987-0.598,1.342 c-0.295-0.935-0.913-1.402-1.914-1.258c-0.194,0.027-0.234-0.163-0.205-0.336c-0.017-0.066-0.035-0.13-0.054-0.196 c-0.209,0.415-0.417,0.827-0.62,1.231c-0.385-0.056-0.275-0.49-0.564-0.621c-0.4,0.113-0.164,0.702-0.677,0.813 c-0.08-0.375-0.167-0.776-0.251-1.18l-0.031-0.071c-0.504,0.202-1.078,0.238-1.38,0.84c-0.093,0.189-0.642,0.531-0.724,0.334 c-0.306-0.739-0.47,0.667-0.841-0.003c-0.206-0.37-0.769-0.551-0.649-1.139c-0.033-0.82-0.357-0.902-0.926-0.367 c-0.049,0.468,0,0.961-0.416,1.435c-0.163-0.408-0.296-0.636-0.848-0.723c-0.62-0.098-1.185-0.124-1.8-0.072 c-0.471,0.041-0.13,0.761-0.632,0.649c-0.496-0.11-1.207-0.011-0.884-1.164c-1.184,1.85-2.281,1.922-3.21,0.47 c-0.032,0.57-0.795,0.765-0.863,0.705c-0.557-0.501-1.278-0.965-0.989-1.952c-0.356,0.404-0.25,0.856-0.326,1.27 c0.057,0.454-0.276,0.612-0.556,0.779c-0.388-0.355-0.142-1.729-1.354-0.682c-0.299,0.258-1.099-0.015-1.693,0.121 c-0.419,0.096-0.047-0.551-0.357-0.717c-0.434,0.061-0.208,0.68-0.628,0.763c-0.229-0.032-0.176-0.227-0.202-0.368 c-0.053-0.299,0.052-0.676-0.384-0.778c-0.397-0.093-0.685,0.192-0.748,0.464c-0.335,1.437-1.767,1.211-2.613,1.43 C3.144,87.89,4.342,87,4.036,86.676l-0.031-0.039c-1.276-0.109-0.659-1.359-1.166-1.933c-0.063,0.387-0.033,0.824-0.215,1.142 c-0.171,0.296-0.395,0.789-0.931,0.069c-0.294-0.393-0.37-0.8-0.6-1.157c-0.234-0.365-0.418,0.17-0.661,0.191l-0.003,19.497 l12.191,0.002c-4.063,0.356-8.124,0.591-12.191,0.24l0,2.51c5.528-0.393,11.169-0.768,16.629-1.573 c-1.741-0.003-3.483-0.001-5.225-0.002c-0.903-0.001-1.81,0-2.714,0c-0.001-0.116-0.001-0.232-0.001-0.348l10.178,0.001 c1.126-0.194,2.244-0.404,3.346-0.646c0.488-0.066,0.975-0.117,1.463-0.179c-0.115-0.243-0.455-0.509,0.183-0.592 c1.046-0.135,2.079-0.072,3.113-0.078c0.786-0.003,1.573,0.002,2.36,0.003c16.659-1.78,33.316-2.146,49.973-2.729 C80.228,100.726,80.798,100.897,81.324,100.868z M46.704,101.724c3.224-0.398,6.182-0.41,9.156-0.256 C52.905,101.426,49.954,101.975,46.704,101.724z"/>
            <path d=" M148.805,86.152c-0.491,0.234-0.178,0.773-0.479,1.082c-0.439,0.19-0.3-0.885-0.908-0.462c-0.032,0.022-0.412-0.503-0.392,0.149 c0.009,0.249-0.109,0.591-0.335,0.569c-0.55-0.05-1.104-0.624-1.621,0.076c-0.818-0.982-1.449,0.31-2.255,0.21 c-0.652-0.081-1.397,0.752-1.982-0.248c-0.074-0.129-0.284-0.094-0.428,0.013c-1.136,0.835-2.296,0.783-3.518,0.162 c-0.339-0.171-0.156,0.329-0.31,0.439c-0.347,0.248-0.362,1.443-1.17,0.417c-0.048-0.062-0.279-0.078-0.297-0.047 c-0.835,1.549-2.247,0.594-3.333,0.629c-0.895,0.028-1.762-0.314-2.648,0.239c-0.277,0.176-0.778,0.063-1.161-0.008 c-2.443-0.442-4.89-0.221-7.343-0.24c-1.68-0.011-3.533,0.371-5.217-0.556c-0.279-0.152-1.371-0.104-1.579,0.095 c-0.699,0.659-1.475,0.398-2.211,0.523c0.023,0.591,0.436,0.917,0.855,1.228c2.025,1.498,2.394,2.791,1.673,5.207 c-0.194,0.648-0.322,1.382-0.151,2.11c0.139,0.597-0.161,0.908-0.775,0.908c-0.914-0.001-1.827,0-3.005,0 c0.632,0.459,1.113,0.24,1.547,0.372c-0.299,0.312-0.729-0.011-1.051,0.253c0.018,0.021,0.04,0.029,0.06,0.045 c4.131-0.373,8.26-0.818,12.393-1.368c1.489-0.214,2.979-0.321,4.47-0.38c0.424-0.073,0.843-0.087,1.256-0.051 c4.83-0.056,9.659,0.637,14.49,1.815c-0.055-0.238-0.223-0.385-0.565-0.417c-0.307-0.03-0.823-0.065-0.185-0.491 c0.257-0.173,0.187-0.38-0.063-0.405c-1.661-0.167-1.545-1.693-1.948-2.699c-0.691-1.728-0.414-3.566,0.24-5.246 c0.393-1.007,1.573-1.094,2.514-0.965c1.849,0.254,3.533-0.391,5.257-0.791c0.394-0.091,0.694,0.066,1.038,0.029v-1.444 C149.074,87.021,148.97,86.548,148.805,86.152z"/>
            <path d=" M29.36,86.362c-0.017-0.066-0.035-0.13-0.054-0.196c0.052-0.849,0.671-1.734-0.124-2.583c-0.458,0.703-0.138,1.553-0.767,2.195 c-0.039-0.885-0.082-1.772-0.122-2.659c-0.181,0.596-0.146,1.19-0.191,1.779c-0.045,0.639-0.132,1.294-0.908,1.511 c0,0-0.031-0.07-0.031-0.069c-0.018-1.203-0.205-1.411-0.752-0.901c-0.87,0.813-0.967,0.182-1.087-0.712 c-0.414,0.75-0.368,1.492-0.99,1.862c-0.127-0.396-0.115-0.833-0.459-1.144c-0.178,0.317,0,0.697-0.303,0.923 c-0.033-0.819-0.357-0.901-0.926-0.365c-1.346-0.502-0.765-1.914-1.366-3.089c-0.469,1.766-1.544,2.65-2.999,2.968 c-0.082-0.413-0.202-1.034-0.324-1.658c-1.228,0.404-0.202,1.554-0.732,2.118c-0.735-0.313-1.232-1.008-2.067-1.127 c-0.193,0.438-0.359,0.884-0.3,1.382c-0.032,0.569-0.796,0.765-0.862,0.704c-0.558-0.5-1.279-0.964-0.99-1.951 c-0.356,0.405-0.249,0.857-0.326,1.27c-0.123-0.203-0.262-0.587-0.369-0.58c-0.589,0.05-0.699-1.522-1.639-0.478 c-0.081,0.091-1.34,0.825-1.77-0.282c-0.059-0.153-0.162-0.33-0.338-0.268c-1.049,0.365-1.233-0.97-2.102-0.961 c-0.018,0.458-0.184,0.941-0.618,1.417c-0.222-0.964-0.498-0.626-1.052-0.215c-0.549,0.406-0.339,1.048-0.754,1.421l-0.031-0.038 c0.048-1.049-0.145-2.015-0.899-2.821c-0.378,0.253-0.254,0.588-0.267,0.887c-0.063,0.387-0.033,0.824-0.215,1.142 c-0.171,0.296-0.395,0.789-0.931,0.07c-0.294-0.393-0.37-0.8-0.6-1.157c-0.233-0.365-0.418,0.169-0.662,0.191l0.001-8.905 c0.523,0.001,1.045,0.025,1.565,0.001c1.259-0.059,2.332-0.17,2.731,1.606c0.276,1.229,1.668,1.511,2.91,1.275 c1.875-0.357,3.469,0.608,5.168,1.047c1.265,0.326,2.5,1.086,3.445-0.53c0.157-0.268,0.62-0.35,0.717-0.098 c0.358,0.922,1.227,0.735,1.886,0.982c1.606,0.606,1.609,0.598,1.98-1.054c0.399,0.326,0.531,0.741,0.516,1.152 c-0.025,0.678,0.653,0.376,0.698,0.361c1.201-0.407,1.197-0.416,1.245-2.032c0.004-0.157,0.032-0.313,0.045-0.453 c0.836,1.339,0.857,2.788,0.44,4.262c0.607,0.122,0.444-0.536,0.555-0.483c2.148,1.042,1.445-1.505,2.537-1.84 c0.026,0.064,0.105,0.222,0.158,0.387c0.074,0.226,0.13,0.459,0.193,0.689c0.106-0.138,0.209-0.276,0.395-0.522l0,1.639 c0.423-1.366,0.124-2.866,0.987-4.212c0,0.893-0.004,1.726,0.002,2.557c0.001,0.208,0.063,0.424,0.287,0.474 c0.235,0.05,0.365-0.111,0.406-0.334c0.125-0.665,1.05-0.242,1.181-0.952c0.144,0.506-0.525,0.974,0.069,1.387 c0.004,0.406-0.346,0.877,0.21,1.187c0.029,0.906,0.71,1.59,0.836,2.464c0.064,0.448,0.346,1.162-0.194,1.204 c-0.456,0.038-1.475,0.249-1.423-0.908C29.573,85.609,29.756,86.147,29.36,86.362 M10.993,84.394 c-0.028-0.065-0.056-0.132-0.086-0.2c-0.036,0.058-0.081,0.115-0.105,0.179c-0.009,0.024,0.027,0.067,0.042,0.104 C10.894,84.45,10.943,84.423,10.993,84.394"/>
            <path d=" M40.821,87.985c-0.017,0.1-0.033,0.201-0.047,0.301c0.001,0-0.082,0.006-0.082,0.006c-0.02-0.079-0.04-0.158-0.06-0.236 c-0.091-0.411-0.179-0.82-0.333-1.536c-0.642,1.747-0.752,0.455-1.032-0.024c-0.141,0.703-0.749,1.088-0.607,1.75l-0.028,0.042 l-0.114,0.007c-0.071-0.11-0.141-0.221-0.211-0.331c-0.113-0.797-0.271-1.583-0.681-2.364c-0.273,0.575-0.502,1.056-0.829,1.744 c-0.114-1.211-0.473-0.557-0.867-0.222c-0.046-0.597-0.09-1.138-0.132-1.679c-0.181,0.433-0.748,0.538-0.866,0.813 c-0.365,0.851-0.641,0.882-1.029,0.07c-0.21-0.44-0.351-0.195-0.437,0.037c-0.124,0.335-0.167,0.338-0.431,0.067 c-0.938-0.964-1.397-2.11-1.466-3.434c1.074-0.034,1.078-1.104,1.589-1.677c0.165-0.183,0.121-0.551,0.584-0.564 c0.186,0.64-0.32,1.66,0.62,1.903c0.778,0.2,0.613-0.741,0.917-1.21c0.302,0.193,0,1.36,0.85,0.566 c0.157-0.146,0.494-0.2,0.518-0.02c0.164,1.148,1.709,1.168,1.84,2.371c0.082,0.753,0.695-0.095,0.99,0.198 c0.219-0.595,0.998-0.404,1.236-0.758c0.721-1.081,0.537,0.339,0.868,0.262c0.479-0.092,0.326-0.686,0.77-0.935 c0.294,0.502,0.221,1.645,1.309,1.032c0.565-0.318,1.113,0.458,1.714-0.121c0.414-0.398,0.555-0.219,0.496,1.066 c0.975-0.317,0.723-1.123,0.756-1.774c0.037-0.712,0.009-1.427,0.274-2.144c0,0.739-0.016,1.479,0.009,2.219 c0.01,0.277-0.122,0.616,0.394,0.713c1.361,0.257,1.355,0.288,1.652,1.633c0.436-0.96,1.294-1.484,1.672-2.49 c0.549,0.546,0.283,1.09,0.362,1.564c0.041,0.255-0.104,0.655,0.281,0.683c0.351,0.027,0.386-0.335,0.416-0.619 c0.032-0.314,0.031-0.641,0.365-0.902c0.369,0.446-0.067,1.087,0.398,1.575c0.322-0.365,0.144-0.787,0.237-1.139 c0.099-0.364,0.05-0.965,0.49-0.965c0.323,0,0.821,0.413,0.931,0.746c0.204,0.607,0.777,1.1,0.551,1.883 c-0.143,0.496,0.315,0.926,0.76,0.874c0.641-0.077,0.375-0.69,0.3-1.05c-0.134-0.637-0.715-1.22-0.071-1.969 c0.428,0.462,0.851,0.921,1.491,1.614c-0.834-1.746,0.943-2.457,1.011-3.779c0.01-0.175,0.179-0.376,0.437-0.278 c0.213,0.081,0.368,0.338,0.258,0.469c-0.695,0.817,0.152,1.649-0.05,2.467c0.141-0.394,0.281-0.786,0.436-1.216 c0.332,0.317,0.092,0.682,0.294,1.018c0.07-0.25,0.126-0.455,0.216-0.78c0.278,0.35,0.017,0.853,0.489,1.095 c0.248-0.403,0.391-0.824,0.386-1.302c-0.001-0.2-0.036-0.425,0.042-0.596c0.233-0.512,0.641-1.12,1.122-1.093 c0.496,0.027,0.184,0.739,0.267,1.142c0.036,0.174,0.036,0.358,0.061,0.613c0.628-0.504,0.592-1.193,0.829-1.872 c0.878,0.687,0.688,1.849,1.354,2.696c0.518-1.103,0.055-2.419,1.103-3.202c0.571,0.32,0.861,0.816,0.55,1.594 c-0.097,0.24-0.021,0.558,0.006,0.833c0.03,0.306,0.181,0.55,0.515,0.563c0.317,0.011,0.353-0.258,0.41-0.495 c0.1-0.424,0.212-0.845,0.408-1.272c-0.325,0.901,0.86,1.659,0.151,2.624c-0.118,0.162,0.133,0.384,0.352,0.201 c0.56-0.466,0.427,0.38,0.747,0.384c0.093-1.029-0.158-2.089,0.436-3.179c0.152,0.813,0.28,1.503,0.39,2.096 c0.868-0.102,0.916-0.876,1.046-1.631c0.501,0.422,0.154,0.935,0.43,1.351c0.27-0.486,0.255-1.102,0.727-1.443 c0.393,0.53,0.032,1.418,0.863,1.715c-0.083,0.51-0.18,1.017-0.246,1.529c-0.037,0.305-0.103,0.552-0.471,0.565 c-0.282,0.01-0.591,0.027-0.699-0.311c-0.15-0.466-0.519-0.674-0.92-0.874c-0.378,0.708,0.62,1.643-0.428,2.312 c-0.046-0.265-0.074-0.455-0.115-0.642c-0.067-0.297-0.064-0.728-0.449-0.724c-0.348,0.001-0.474,0.375-0.511,0.712 c-0.044,0.398-0.158,0.749-0.559,0.957c-0.414-0.538-0.019-1.156-0.368-1.706c-0.098,1.348-0.688,0.824-1.249,0.393 c-0.203,0.905,0.167,1.851-0.237,2.728c-0.248-0.534-0.497-1.068-0.747-1.603c0.241-1.032-0.826-1.41-1.097-2.552 c-0.11,0.744-0.111,1.149-0.24,1.509c-0.198,0.557-0.072,1.459-0.887,1.495c-0.834,0.036-0.78-0.833-0.968-1.404 c-0.014-0.043-0.123-0.057-0.208-0.092c-0.436,0.294-0.084,0.874-0.464,1.362c-0.104-0.813-0.419-1.377-1.019-1.919 c0.019,1.039-1.062,1.348-1.36,2.221l0-3.036c-0.344,0.309-0.045,0.87-0.505,0.836c-0.399-0.028-0.108-0.563-0.401-0.768 c-0.04,0.396-0.08,0.77-0.148,1.402c-0.227-0.701-0.374-1.15-0.574-1.768c-0.126,1.202-0.985,2.005-0.85,3.104l-0.003-0.004 c-0.096-0.166-0.156-0.424-0.294-0.476c-0.251-0.099-0.305,0.169-0.35,0.356c-0.093,0.381-0.171,0.764-0.255,1.146 c-0.075,0.014-0.145-0.001-0.208-0.042c-0.144-0.438-0.439-0.827-0.858-0.897c-0.599-0.098-1.247,0.091-1.227-0.905 c0.004-0.262-0.357-0.155-0.421,0.161c-0.026,0.131-0.054,0.259-0.081,0.39c-0.399-0.54-0.904-0.227-1.376-0.173 c-0.82,0.095-0.467-0.771-0.92-1.16l0,2.396c-1.313-0.212-1.018-1.484-1.305-1.858c-0.996,0.047-1.351,1.001-2.341,0.897 c-0.61-0.064-1.185-0.14-1.572-0.92c-0.049,0.926-0.45,0.859-0.98,0.534c-0.189-0.115-0.542-0.253-0.649-0.169 c-1.083,0.865-1.951,0.543-2.682-0.51C40.843,87.191,40.77,87.572,40.821,87.985 M36.575,83.166 c0.027-0.062,0.061-0.123,0.075-0.188c0.003-0.013-0.071-0.068-0.083-0.06c-0.056,0.033-0.103,0.082-0.152,0.126 C36.467,83.086,36.52,83.126,36.575,83.166 M69.91,86.57c-0.028,0.006-0.065,0.003-0.078,0.021 c-0.019,0.024-0.016,0.063-0.021,0.097c0.044-0.01,0.088-0.019,0.132-0.027C69.933,86.63,69.921,86.602,69.91,86.57"/>
            <path d=" M100.364,89.12c-0.982,0.406-2.443,0.273-3.184-0.324c-0.201-0.162-0.366-0.2-0.484,0.015c-0.428,0.767-0.747,0.774-1.242,0 c-0.346-0.541-0.876-0.418-1.27,0.136c-0.167-0.863-0.267-1.729-0.51-2.553c-0.253-0.85,0.312-1.612,0.189-2.442 c-0.651,0.659-0.531,1.529-0.764,2.291c-0.079,0.256-0.024,0.625-0.441,0.553c-0.307-0.051-0.283-0.365-0.271-0.589 c0.038-0.736-0.258-1.409-0.352-2.124c-0.213,0.29,0.081,1.015-0.557,0.854c-0.655-0.167-0.18-0.909-0.434-1.356 c-0.521,0.544-0.139,1.251-0.403,1.921c-0.51-0.615-0.995-1.198-1.533-1.846c-0.07,0.464-0.123,0.811-0.178,1.169 c-0.6-0.034-0.466-0.612-0.753-0.877c-0.453,0.3-0.758,0.507-0.312,1.18c0.526,0.797-0.07,3.256-0.802,3.887 c-0.301,0.26-0.589,0.235-0.917-0.124c-0.622-0.684-0.543-1.456-0.477-2.254c0.288,0.006,0.586,0.006,0.721-0.306 c0.347-0.816,1.165-1.45,0.927-2.505c-0.055-0.242,0.112-0.536,0.177-0.805c0.088-0.376,0.051-0.983,0.473-0.987 c0.664-0.005,0.389,0.708,0.498,1.139c0.519-0.268,0.128-0.787,0.492-1.155c0.207,0.694,1.254,0.392,1.352,1.286 c0.655-0.27,0.718-0.882,0.88-1.432c0.232-0.19,0.219-0.47,0.267-0.726c0.291,0.292,0.191,0.678,0.223,1.027 c0.059,0.675,0.656,1.216,1.047,1.227c0.626,0.021,0.277-0.748,0.381-1.171c0.029-0.11-0.01-0.238-0.018-0.358 c0.058-0.584,0.036-1.184,0.374-1.792c0.243,0.456,0.361,0.889,0.33,1.349c-0.032,0.494,0.255,0.488,0.596,0.433 c0,0.151,0.002,0.301,0.003,0.452c-0.002,0.164-0.003,0.326-0.004,0.488c-0.001,1.315-0.001,2.632-0.001,3.976 c0.251-0.222,0.478-0.522,0.874-0.354c0.095,0.11-0.089,0.338,0.162,0.378c-0.049-0.127-0.1-0.257-0.15-0.387 c0.235-1.116,0.469-2.232,0.705-3.348l0.051-0.035c0.259,0.053,0.5,0.181,0.415,0.471c-0.261,0.903,0.124,1.728,0.265,2.581 c0.12,0.726,0.061,1.537,1.176,1.581c0.222,0.007,0.426,0.503,0.623,0.755c0.241-0.036,0.286-0.177,0.319-0.341 c0.069-0.328-0.109-0.882,0.362-0.898c0.651-0.026,0.217,0.521,0.27,0.811c0.06,0.333,0.236,0.577,0.527,0.788 c0.056-0.322,0.11-0.619,0.186-1.045C100.446,88.266,100.358,88.698,100.364,89.12 M96.028,88.849 c0.197-0.607,0.261-1.194-0.075-1.756C95.973,87.687,95.659,88.276,96.028,88.849"/>
            <path d=" M79.132,84.002c0.056,0.599,0.235,1.289-0.78,1.164c-0.337-0.043-0.396,0.152-0.422,0.418c-0.093,0.948-0.195,1.895-0.292,2.847 c-0.34,0.086,0.19-0.736-0.492-0.455c-0.263,0.109,0.006-0.597-0.378-0.867c-0.036,0.522-0.067,0.979-0.098,1.435 c-0.217-0.968-0.87-1.848-0.566-2.911c0.803,0.076,0.519-0.615,0.694-0.982c0.216-0.453,0.433-0.907,0.65-1.361 c0.019,0.304,0.037,0.611,0.065,1.017c0.25-0.436,0.198-0.741-0.052-1.028c-0.003-0.428-0.041-0.867,0.39-1.263 C78.091,82.865,77.54,84.173,79.132,84.002"/>
            <path d=" M72.803,84.285c-0.125-0.015-0.25-0.028-0.374-0.043c-0.012-0.037-0.023-0.075-0.032-0.113c-0.179-0.688-0.545-1.779,0.116-1.931 c0.846-0.193,1.064,0.947,1.27,1.68c0.116,0.409,0.052,0.868,0.071,1.303c0,0.001-0.029,0.032-0.029,0.032 c-0.237-0.347-0.474-0.693-0.709-1.041C72.859,83.789,72.914,84.263,72.803,84.285"/>
            <path d=" M74.481,88.431c-0.625-0.79,0.706-0.729,0.566-1.307c0.194-0.154,0.283-0.547,0.66-0.301c0.057,0.4-0.057,0.779-0.113,1.17 C75.47,88.854,75.079,88.862,74.481,88.431"/>
            <path d=" M74.528,86.207c-0.435,0-0.607-0.43-0.946-0.586c0.081-0.135,0.162-0.274,0.244-0.409c0,0,0.029-0.031,0.029-0.032 c0.442-0.225,0.429-1.305,1.025-0.892c0.41,0.283,0.399,1.204-0.264,1.698C74.56,86.026,74.556,86.131,74.528,86.207"/>
            <path d=" M79.75,88.294c-0.515-0.846-0.105-1.624-0.08-2.396c0.005-0.2,0.156-0.382,0.383-0.371c0.256,0.014,0.277,0.248,0.283,0.44 C80.362,86.789,80.509,87.642,79.75,88.294"/>
            <path d=" M73.28,85.905c-0.02,0.74,0.855,1.419,0.164,2.21c-0.413-0.112-0.172-0.583-0.451-0.778c-0.085,0.21-0.169,0.416-0.352,0.861 c-0.139-0.816-0.284-1.378-0.188-1.914c0.265-0.282,0.102,1.022,0.494,0.048C73.059,86.189,73.171,86.047,73.28,85.905"/>
        </g>
        <g id="mountains-1" clip-path="url(#ga_clippath)" fill-rule="evenodd" clip-rule="evenodd" fill="#B0C494" stroke="#B0C494" stroke-width="0.25" stroke-miterlimit="10">
            <path d=" M6.458,41.383c-0.098,0.716-0.665,1.107-1.16,1.47c-1.281,0.941-2.178,2.096-2.676,3.633c-0.242,0.749,0.036,0.906,0.597,0.888 c0.99-0.028,1.886,0.227,2.789,0.604c0.634,0.266,1.279,0.217,1.926-0.222c1.484-1.001,3.958,0.216,4.045,1.968 c0.031,0.604,0.223,1.096,0.807,1.162c1.006,0.111,1.981,0.479,3.056,0.121c1.548-0.514,3.179-0.223,4.771-0.167 c0.744,0.025,1.02,0.757,0.956,1.327c-0.229,2.069,1.229,2.597,2.703,3.029c1.031,0.306,2.128,0.309,3.178-0.107 c1.508-0.597,2.996,0.221,4.504,0.1c0.281-0.022,0.503,0.315,0.465,0.613c-0.16,1.205,0.73,1.992,1.141,2.968 c0.287,0.683,0.759,0.792,1.341,0.401c0.852-0.572,1.729-0.468,2.653-0.228c0.407,0.105,0.658,0.094,0.43,0.664 c-0.324,0.803,0.35,0.824,0.771,0.618c0.896-0.437,1.66-0.214,2.531,0.086c1.287,0.445,2.693-0.062,4.017,0.328 c0.294,0.087,0.645-0.009,0.871,0.294c-0.055,0.893-0.719,1.614-0.719,2.522c0,0.477-0.078,1.095,0.648,1.019 c1.27-0.133,2.375,0.746,3.65,0.519c0.262-0.047,0.604-0.034,0.67,0.336c0.058,0.316-0.161,0.545-0.41,0.674 c-0.241,0.128-0.536,0.146-0.793,0.252c-0.319,0.133-0.759,0.201-0.771,0.646c-0.012,0.417,0.352,0.644,0.686,0.747 c0.869,0.271,1.507,1.054,2.499,1.07c0.262,0.003,0.684,0.167,0.633,0.585c-0.037,0.313-0.373,0.238-0.594,0.259 c-1.203,0.104-1.362,1.384-2.178,1.926c-0.134,0.09-0.112,0.354,0.058,0.397c0.617,0.164,0.879,0.866,1.482,0.988 c1.638,0.331,3.24,0.871,4.951,0.776c2.362-0.129,4.716,0.12,7.071,0.239c0.286,0.016,0.598,0.021,0.777,0.252 c0.606,0.785,1.472,0.603,2.291,0.744c1.396,0.238,3.085-0.14,3.934,1.552c0.126,0.256,0.442,0.326,0.738,0.336 c2.109,0.074,3.977,1.616,6.2,1.031c0.099-0.026,0.228,0.09,0.344,0.091c2.225,0.027,4.447,0.292,6.676,0.125 c0.59-0.044,1.224-0.118,1.129,0.755c-0.112,1.066,0.488,1.083,1.305,1.166c1.091,0.113,2.58-0.614,3.054,1.19 c0.034,0.122,0.417,0.182,0.645,0.215c0.413,0.061,0.782,0.17,1.041,0.522c-0.162,0.549-0.225,1.162-0.88,1.432 c-0.098-0.894-1.146-0.591-1.353-1.286c-0.363,0.368,0.028,0.888-0.49,1.155c-0.111-0.43,0.166-1.144-0.499-1.139 c-0.422,0.004-0.384,0.611-0.473,0.987c-0.065,0.269-0.232,0.563-0.178,0.805c0.239,1.054-0.579,1.688-0.926,2.505 c-0.135,0.313-0.434,0.312-0.721,0.307c-0.024-0.051-0.045-0.101-0.063-0.153c0.228-1.318-1.017-2.11-1-3.388 c-0.74,0.361-0.854,1.017-1.284,1.411c-0.471-0.501-0.232-1.257-0.772-1.804c-0.134,0.521-0.24,0.978-0.378,1.427 c-0.04,0.126-0.17,0.224-0.257,0.335c-0.599-1.12-0.462,0.326-0.711,0.241c-0.289-0.236,0.098-0.766-0.521-0.86 c0.036,0.464,0.071,0.883,0.105,1.3h-0.404c-0.086-0.9-0.315-1.739-0.926-2.456c-0.471,0.354-0.296,0.766-0.283,1.146 c-0.012,0.056-0.026,0.111-0.044,0.167c-1.592,0.17-1.041-1.137-1.281-1.986c-0.43,0.395-0.393,0.835-0.39,1.263l-0.015,0.011 c-0.216,0.454-0.433,0.908-0.649,1.361c-0.175,0.366,0.109,1.059-0.694,0.982c-0.083-0.431,0.053-0.917-0.396-1.453l0,2.642 c-0.376-0.246-0.465,0.146-0.66,0.301c-0.336-0.213-0.457-0.548-0.52-0.917c0.028-0.074,0.032-0.181,0.087-0.22 c0.663-0.494,0.674-1.415,0.264-1.698c-0.596-0.414-0.583,0.667-1.025,0.892c-0.017-0.435,0.045-0.895-0.07-1.303 c-0.208-0.732-0.425-1.874-1.271-1.679c-0.662,0.151-0.295,1.241-0.116,1.93c0.009,0.038,0.021,0.077,0.032,0.113l-0.009,0.04 c-0.831-0.298-0.47-1.186-0.863-1.716c-0.472,0.342-0.456,0.958-0.728,1.443c-0.275-0.417,0.071-0.929-0.428-1.351 c-0.132,0.755-0.179,1.529-1.049,1.631c-0.109-0.593-0.237-1.283-0.389-2.096c-0.594,1.09-0.342,2.15-0.436,3.179 c-0.32-0.004-0.187-0.85-0.747-0.383c-0.219,0.183-0.47-0.04-0.352-0.202c0.709-0.965-0.477-1.722-0.151-2.624 c-0.196,0.428-0.308,0.849-0.408,1.272c-0.058,0.237-0.093,0.506-0.41,0.495c-0.334-0.012-0.484-0.256-0.515-0.563 c-0.026-0.277-0.103-0.593-0.006-0.833c0.311-0.778,0.021-1.273-0.552-1.594c-1.046,0.783-0.583,2.099-1.101,3.202 c-0.666-0.847-0.477-2.009-1.354-2.696c-0.236,0.679-0.201,1.368-0.829,1.872c-0.024-0.255-0.024-0.439-0.061-0.613 c-0.083-0.402,0.229-1.115-0.266-1.142c-0.482-0.026-0.89,0.58-1.123,1.093c-0.077,0.17-0.044,0.396-0.042,0.596 c0.004,0.479-0.138,0.899-0.387,1.302c-0.472-0.241-0.211-0.745-0.489-1.095c-0.09,0.325-0.146,0.53-0.216,0.78 c-0.202-0.336,0.038-0.701-0.294-1.018c-0.154,0.431-0.294,0.822-0.437,1.216c0.203-0.817-0.645-1.65,0.051-2.467 c0.11-0.13-0.045-0.388-0.258-0.469c-0.258-0.099-0.426,0.104-0.437,0.278c-0.067,1.322-1.845,2.034-1.011,3.779 c-0.641-0.693-1.063-1.152-1.491-1.614c-0.645,0.75-0.063,1.334,0.071,1.969c0.076,0.36,0.341,0.974-0.3,1.05 c-0.446,0.052-0.902-0.378-0.76-0.874c0.225-0.783-0.347-1.275-0.551-1.883c-0.11-0.332-0.607-0.743-0.932-0.745 c-0.439,0-0.391,0.602-0.489,0.965c-0.093,0.352,0.086,0.774-0.235,1.139c-0.466-0.487-0.03-1.129-0.399-1.576 c-0.333,0.263-0.333,0.589-0.365,0.904c-0.03,0.284-0.065,0.646-0.416,0.619c-0.386-0.028-0.239-0.428-0.283-0.683 c-0.077-0.474,0.188-1.018-0.359-1.564c-0.38,1.006-1.238,1.53-1.675,2.491c-0.296-1.346-0.29-1.377-1.651-1.634 c-0.517-0.097-0.384-0.436-0.394-0.713c-0.023-0.74-0.009-1.479-0.009-2.219c-0.265,0.717-0.237,1.432-0.274,2.144 c-0.033,0.651,0.219,1.457-0.756,1.774c0.059-1.285-0.083-1.465-0.496-1.066c-0.601,0.58-1.149-0.197-1.714,0.121 c-1.088,0.613-1.015-0.53-1.309-1.034c-0.443,0.25-0.289,0.844-0.77,0.937c-0.331,0.078-0.147-1.342-0.868-0.262 c-0.238,0.354-1.017,0.163-1.236,0.758c-0.295-0.293-0.909,0.555-0.99-0.198c-0.131-1.203-1.676-1.223-1.839-2.371 c-0.025-0.18-0.362-0.126-0.519,0.021c-0.847,0.794-0.548-0.373-0.851-0.566c-0.303,0.47-0.137,1.411-0.915,1.21 c-0.94-0.242-0.436-1.264-0.621-1.903c-0.463,0.013-0.42,0.381-0.585,0.565c-0.511,0.572-0.513,1.642-1.587,1.676 c-0.113-0.236,0.015-0.571-0.297-0.726c0.17-0.633,0.175-1.133-0.725-0.913c-0.594-0.413,0.075-0.881-0.069-1.388 c-0.131,0.71-1.056,0.287-1.182,0.952c-0.04,0.221-0.17,0.385-0.405,0.333c-0.225-0.048-0.286-0.264-0.287-0.473 c-0.006-0.83-0.002-1.664-0.002-2.557c-0.863,1.346-0.563,2.845-0.987,4.212l0-1.64c-0.186,0.246-0.289,0.384-0.395,0.521 c-0.063-0.23-0.12-0.462-0.193-0.688c-0.053-0.166-0.132-0.323-0.158-0.387c-1.092,0.335-0.389,2.881-2.537,1.84 c-0.111-0.052,0.052,0.606-0.555,0.483c0.417-1.473,0.396-2.922-0.44-4.262c-0.013,0.139-0.041,0.296-0.045,0.451 c-0.048,1.617-0.044,1.627-1.245,2.033c-0.045,0.014-0.723,0.316-0.698-0.362c0.015-0.41-0.117-0.825-0.516-1.152 c-0.371,1.652-0.374,1.661-1.98,1.055c-0.66-0.247-1.528-0.061-1.886-0.982c-0.097-0.252-0.56-0.17-0.717,0.098 c-0.944,1.617-2.18,0.856-3.445,0.53c-1.699-0.438-3.293-1.404-5.168-1.047c-1.242,0.235-2.635-0.046-2.91-1.275 c-0.399-1.776-1.472-1.665-2.731-1.607c-0.521,0.024-1.042,0.001-1.565,0l0.006-34.663L6.458,41.383z M25.407,81.772 c0.107-0.116,0.216-0.181,0.225-0.256c0.009-0.087-0.075-0.18-0.12-0.27c-0.076,0.06-0.196,0.108-0.215,0.182 C25.276,81.508,25.351,81.613,25.407,81.772 M35.06,80.779c-0.025-0.061-0.05-0.12-0.075-0.18 c-0.028,0.021-0.076,0.041-0.077,0.063c-0.005,0.064,0.01,0.13,0.019,0.195C34.97,80.833,35.014,80.808,35.06,80.779"/>
            <path d=" M91.189,81.871c-0.259-0.353-0.628-0.462-1.041-0.523c-0.228-0.033-0.611-0.093-0.645-0.215c-0.475-1.804-1.963-1.077-3.054-1.19 c-0.817-0.083-1.417-0.1-1.305-1.166c0.095-0.874-0.539-0.799-1.129-0.755c-2.229,0.166-4.452-0.098-6.676-0.125 c-0.116-0.001-0.245-0.118-0.344-0.091c-2.223,0.585-4.091-0.957-6.2-1.031c-0.295-0.011-0.611-0.081-0.738-0.336 c-0.849-1.692-2.538-1.314-3.934-1.552c-0.819-0.141-1.684,0.042-2.291-0.744c-0.179-0.232-0.491-0.236-0.777-0.252 c-2.355-0.119-4.709-0.368-7.071-0.239c-1.711,0.095-3.313-0.446-4.951-0.776c-0.603-0.122-0.865-0.824-1.481-0.988 c-0.17-0.043-0.192-0.308-0.058-0.397c0.816-0.542,0.975-1.823,2.178-1.926c0.221-0.021,0.557,0.055,0.594-0.259 c0.051-0.418-0.371-0.582-0.633-0.585c-0.992-0.016-1.629-0.799-2.499-1.07c-0.334-0.103-0.698-0.329-0.686-0.747 c0.013-0.445,0.452-0.514,0.771-0.646c0.257-0.106,0.552-0.125,0.793-0.252c0.249-0.129,0.467-0.358,0.41-0.674 c-0.065-0.37-0.408-0.383-0.67-0.336c-1.275,0.227-2.381-0.652-3.65-0.519c-0.727,0.076-0.648-0.542-0.648-1.019 c0-0.908,0.666-1.629,0.719-2.522c1.866-0.065,3.771-0.36,5.36,1.057c0.36,0.322,0.875,0.383,1.371,0.344 c2.086-0.174,4.188,0.028,6.216,0.325c1.898,0.278,3.807-0.048,5.667,0.413c1.051,0.261,1.965-0.598,3.089-0.293 c1.215,0.332,2.534,0.21,3.763,0.613c0.701,0.23,1.419,0.323,2.028-0.261c0.396-0.38,0.888-0.301,1.364-0.311 c0.99-0.014,2.004,0.151,2.873-0.558c0.254-0.206,0.628-0.228,0.919-0.056c1.481,0.888,3.333,0.671,4.802,1.683 c0.606,0.414,1.525,0.25,2.241,0.096c1.082-0.234,2.238,0.039,3.269-0.561c0.484-0.281,0.904,0.155,1.29,0.427 c0.983,0.694,1.977,1.078,3.052,0.183c0.161-0.136,0.368-0.246,0.545-0.098c1.388,1.163,2.993,0.312,4.489,0.462 c0.457,0.044,0.919,0.022,1.189,0.362c1.021,1.285,2.545,1.188,3.919,1.521c0.25,0.063,0.532,0.109,0.643-0.143 c0.535-1.223,1.029-0.402,1.461,0.044c0.774,0.793,1.323,1.798,2.423,2.276c0.526,0.228,0.386,0.836,0.351,1.304 c-0.035,0.475-0.157,0.943-0.216,1.417c-0.1,0.787,0.007,1.347,1.049,1.052c0.498-0.144,0.895,0.159,1.275,0.504 c2.165,1.953,4.294,3.951,6.545,5.797c1.719,1.409,3.834,2.207,5.804,3.204c0.678,0.341,1.654,0.097,2.493,0.12 c1.469,0.04,2.947,0,4.405,0.051c1.786,0.062,3.645-0.131,4.863-1.154c1.203-1.011,3.004-0.521,3.881-2.066 c0.382-0.672,0.656-1.541,1.458-1.954c2.035-1.043,3.019-3.185,4.751-4.542c0.313-0.246,0.46-0.535,0.519-0.9 c0.031-0.199-0.008-0.457,0.102-0.582c1.294-1.471,2.233-3.317,4.246-4.027l-0.003,16.608c-1.257,0.494-2.892,0.551-2.897,2.5 c0,0.147-0.119,0.215-0.243,0.128c-0.767-0.543-1.617,1.106-2.419-0.096c-0.084-0.127-1.011,0.033-1.148,0.422 c-0.245,0.704-0.637,0.542-1.124,0.447c-0.857-0.166-1.645-0.496-2.555,0.2c-0.772,0.591-1.167-0.147-1.26-1.151 c-0.52,1.194-1,0.459-1.529,0.049c-0.045,1.121-0.211,1.823-1.542,1.699c-0.848-0.081-1.907-0.282-2.647,0.391 c-0.672,0.607-1.108,0.675-1.588-0.156c-0.208-0.362-0.465-0.468-0.769,0.025c-0.218,0.352-0.615,0.596-0.946,0.873 c-0.247,0.206-0.578,0.276-0.689-0.079c-0.534-1.67-0.731,0.243-1.211,0.101c0.054-1.063-0.521-0.969-1.38-0.912 c-1.212,0.082-2.354,0.488-3.661,0.369c-0.963-0.088-1.965-0.647-3-0.271c-0.593,0.215-1.163,0.269-1.763-0.207 c-0.492-0.39-1.245-0.875-1.492,0.336c-0.005,0.024-0.212,0.005-0.327,0.005c-0.036-0.247-0.071-0.492-0.104-0.738 c-0.086-0.002-0.169-0.005-0.255-0.008c-0.065,0.057-0.131,0.113-0.197,0.171c-1.627,0.27-3.237,0.297-4.797-0.349 c-0.101-0.041-0.203-0.077-0.305-0.115c-0.554,1.459-0.914-0.313-1.466-0.053c-0.063,0.574-0.421,0.832-1.05,0.736 c-0.945-0.146-1.403-1.285-2.518-1.211c-0.136,0.01-0.348-1.12-0.538-1.771c-0.448,0.072-1.001,1.257-1.353-0.078 c-0.068-0.258-0.311-0.117-0.48,0.006c-0.233,0.17-0.568,0.148-0.574-0.12c-0.024-1.111-1.149-1.918-0.813-3.125 c0.093-0.335,0.014-0.72,0.014-1.081c-0.163,1.078-1.331,0.974-1.754,1.596c-0.568,0.836-1,0.619-1.54-0.01 c-0.353-0.415-0.691-0.779-0.46-1.374c0.084-0.215,0.218-0.508-0.087-0.609c-0.284-0.095-0.395,0.185-0.457,0.425 c-0.243,0.924-0.48,1.848-0.719,2.771l-0.051,0.035c-0.426-0.479-0.029-1.138-0.505-1.95c0.151,1.139-0.161,1.684-1.083,1.685 c0.001-0.162,0.001-0.325,0.004-0.488c0.168-0.026,0.334-0.082,0.276-0.287c-0.021-0.075-0.181-0.11-0.279-0.165 c-0.341,0.055-0.628,0.061-0.595-0.432c0.031-0.46-0.088-0.896-0.331-1.351c-0.338,0.607-0.316,1.208-0.375,1.792 c-1.07-0.078-0.555-1.379-1.395-1.709c-0.075,0.314-0.156,0.649-0.238,0.984C91.408,81.4,91.421,81.68,91.189,81.871 M94.434,81.042l-0.015,0.146c0.02-0.021,0.054-0.043,0.056-0.068C94.477,81.095,94.449,81.068,94.434,81.042"/>
        </g>
        <g id="reeds-2" clip-path="url(#ga_clippath)" fill-rule="evenodd" clip-rule="evenodd" fill="#3B5A2A" stroke="#3B5A2A" stroke-width="0.5" stroke-miterlimit="10">
            <path d=" M79.75,88.294c-0.515-0.846-0.105-1.624-0.08-2.396c0.005-0.2,0.157-0.382,0.383-0.371c0.256,0.014,0.277,0.248,0.283,0.439 C80.362,86.789,80.509,87.642,79.75,88.294z M108.674,99.113l-5.861-0.001c0-0.04,0-0.078,0-0.117l5.861,0.001 C108.674,99.035,108.674,99.074,108.674,99.113z M111.761,99.017c-0.434-0.132-0.917,0.088-1.547-0.372 c1.18,0,2.092-0.001,3.006,0c0.614,0,0.914-0.312,0.775-0.908c-0.17-0.728-0.044-1.462,0.151-2.11 c0.721-2.416,0.352-3.709-1.673-5.207c-0.419-0.31-0.832-0.636-0.857-1.228c-0.132-0.012-0.264-0.022-0.396-0.036 c-0.419,0.209-0.826,0.473-1.33,0.274c-0.579-0.395-1.201-0.35-1.834-0.184c-0.57,0.007-1.136,0.016-1.705,0.023 c-0.168-0.075-0.336-0.151-0.503-0.226c-0.236,0.013-0.488,0.09-0.703,0.031c-0.563-0.152-1.103-0.477-1.571,0.218 c-0.082,0.121-0.454,0.05-0.615-0.18c-1.022,0.45-1.213-0.42-1.551-1.119c-0.226,0.584-0.09,1.302-0.927,1.249 c0,0.07,0.001,0.16-0.017,0.001c-0.025-0.049-0.058-0.091-0.098-0.127c-0.982,0.406-2.443,0.274-3.185-0.324 c-0.2-0.162-0.364-0.199-0.483,0.015c-0.428,0.766-0.747,0.773-1.242,0c-0.346-0.541-0.876-0.419-1.27,0.137 c-0.167-0.863-0.267-1.729-0.51-2.552c-0.253-0.852,0.312-1.614,0.189-2.443c-0.65,0.659-0.531,1.53-0.764,2.292 c-0.079,0.255-0.024,0.624-0.441,0.552c-0.307-0.051-0.283-0.366-0.271-0.59c0.039-0.736-0.258-1.408-0.354-2.124 c-0.211,0.29,0.083,1.015-0.555,0.854c-0.655-0.167-0.18-0.909-0.436-1.356c-0.52,0.544-0.137,1.251-0.401,1.922 c-0.51-0.617-0.995-1.198-1.533-1.847c-0.07,0.464-0.123,0.811-0.178,1.169c-0.6-0.034-0.465-0.612-0.753-0.877 c-0.454,0.301-0.758,0.507-0.312,1.18c0.526,0.797-0.07,3.255-0.802,3.887c-0.302,0.261-0.589,0.235-0.917-0.124 c-0.622-0.684-0.543-1.457-0.477-2.253c-0.024-0.05-0.045-0.102-0.063-0.152c-0.102,0.289-0.203,0.582-0.35,1 c-0.209-0.566-0.089-1.121-0.446-1.481c-0.396,0.595-0.444,1.23-0.161,1.947c0.113,0.29,0.119,0.838-0.306,0.93 c-0.528,0.114-0.488-0.497-0.523-0.758c-0.115-0.867-0.108-1.752-0.156-2.794c-0.693,0.836-0.024,1.834-0.651,2.603 c-0.526-0.652-0.418-1.456-0.57-2.181c-0.037-0.178,0.338-0.5-0.146-0.527c-0.47-0.025-0.325,0.318-0.32,0.588 c0.012,0.758,0.113,1.522-0.082,2.273c-0.041,0.154-0.132,0.294-0.33,0.3c-0.8-0.944-0.659-2.122-0.777-3.239h-0.404 c-1.18,0.278-0.732-0.942-1.208-1.311c-0.012,0.057-0.026,0.112-0.044,0.167c0.056,0.599,0.235,1.289-0.78,1.164 c-0.337-0.043-0.396,0.152-0.422,0.418c-0.093,0.948-0.195,1.895-0.293,2.847c-0.339,0.086,0.191-0.736-0.491-0.455 c-0.263,0.109,0.006-0.597-0.38-0.87c-0.035,0.524-0.066,0.981-0.097,1.438c-0.216-0.968-0.869-1.848-0.565-2.911 c-0.083-0.43,0.053-0.917-0.396-1.453l0,2.642c0.057,0.4-0.057,0.779-0.113,1.17c-0.125,0.862-0.516,0.869-1.113,0.438 c-0.051,0.047-0.1,0.093-0.148,0.141c-0.026,0.678,0.126,1.122,0.966,0.847c0.293-0.096,0.628-0.064,0.945-0.084 c1.016-0.066,2.012-0.184,2.757-1.007c0.436,0.607,0.854,1.009,1.765,1.089c0.925,0.081,2.192,0.264,2.573,1.395 c0.267,0.795,0.693,1.437,1.196,2.036c1.072,1.276,1.815,2.667,2.194,4.316c0.489,2.131-0.58,3.659-2.759,3.678 c-0.883,0.007-1.766-0.021-2.646,0.027c-0.527,0.029-1.099-0.142-1.591,0.188c6.658-0.234,13.317-0.51,19.978-0.92 c0.327-0.417,1.009-0.271,1.574-0.227c0.879,0.071,1.742-0.265,2.615-0.045c0.202-0.014,0.403-0.027,0.604-0.042 c0.607-0.148,1.215-0.2,1.823-0.146c1.48-0.115,2.961-0.228,4.442-0.36c-0.02-0.016-0.042-0.024-0.06-0.045 C111.032,99.005,111.46,99.329,111.761,99.017z"/>
            <path d=" M143.398,99.64c0.08,0.014,0.158,0.029,0.238,0.044c0.365-0.001,0.729-0.003,1.092-0.004c-0.45-0.118-0.899-0.238-1.35-0.348 C143.399,99.421,143.408,99.521,143.398,99.64z"/>
            <path d=" M149.667,88.347c-0.343,0.038-0.644-0.12-1.038-0.029c-1.725,0.399-3.408,1.044-5.257,0.791c-0.941-0.129-2.121-0.042-2.514,0.965 c-0.654,1.68-0.932,3.519-0.24,5.246c0.402,1.006,0.287,2.532,1.948,2.699c0.25,0.025,0.32,0.232,0.063,0.405 c-0.638,0.425-0.122,0.461,0.185,0.491c0.343,0.033,0.51,0.179,0.565,0.417c0.451,0.11,0.9,0.23,1.35,0.348 c1.646-0.006,3.291-0.014,4.937-0.021L149.667,88.347z"/>
            <path d=" M12.622,104.449l-12.194-0.002v0.242C4.496,105.041,8.558,104.805,12.622,104.449z"/>
            <path d=" M149.664,102.066c-0.958,0.328-1.91-0.046-2.864-0.031c0.84-0.882,1.918-0.249,2.864-0.45V102.066z"/>
            <path d=" M66.167,89.221c0.405-0.877,0.035-1.823,0.237-2.728c0.562,0.431,1.151,0.955,1.249-0.393c0.349,0.551-0.045,1.168,0.369,1.706 c0.4-0.208,0.514-0.559,0.557-0.957c0.038-0.338,0.164-0.71,0.512-0.714c0.384-0.002,0.381,0.428,0.449,0.725 c0.041,0.187,0.068,0.377,0.115,0.642c1.048-0.668,0.05-1.604,0.427-2.312c0.403,0.199,0.771,0.407,0.921,0.874 c0.108,0.338,0.417,0.321,0.699,0.311c0.368-0.014,0.434-0.261,0.471-0.565c0.066-0.512,0.162-1.02,0.246-1.529 c0,0.001,0.009-0.039,0.009-0.039c0.125,0.016,0.25,0.029,0.374,0.043c0.049,0.683,0.097,1.364,0.146,2.046 c-0.393,0.976-0.23-0.33-0.496-0.048c-0.095,0.536,0.049,1.099,0.188,1.915c0.183-0.446,0.267-0.652,0.352-0.862 c0.279,0.195,0.038,0.666,0.451,0.778c0.691-0.793-0.184-1.47-0.165-2.21c0.101-0.094,0.203-0.19,0.302-0.284 c0.339,0.156,0.511,0.586,0.946,0.586c0.063,0.369,0.184,0.704,0.52,0.917c0.14,0.578-1.192,0.518-0.566,1.306 c-0.051,0.048-0.099,0.094-0.148,0.142c-0.281,0.212-0.541,0.472-0.851,0.625c-0.823,0.398-1.513,0.478-1.36-0.77 c-1.156,1.234-0.865-0.642-1.413-0.646c-0.413,1.168-1.678,1.607-3.158,1.097c-0.281-0.097-0.129,0.24-0.2,0.242 C66.954,89.134,66.613,89.888,66.167,89.221"/>
            <path d=" M40.821,87.985c-0.049-0.415,0.022-0.794,0.355-1.211c0.731,1.053,1.6,1.375,2.684,0.511c0.105-0.085,0.458,0.053,0.648,0.168 c0.53,0.325,0.931,0.392,0.981-0.534c0.387,0.781,0.961,0.857,1.571,0.921c0.99,0.103,1.344-0.851,2.341-0.898 c0.288,0.375-0.008,1.646,1.305,1.858l0-2.396c0.453,0.388,0.1,1.255,0.92,1.16c0.472-0.054,0.977-0.367,1.376,0.173 c0.027-0.131,0.055-0.259,0.081-0.39c0.064-0.316,0.426-0.424,0.421-0.162c-0.02,0.997,0.628,0.808,1.227,0.906 c0.42,0.07,0.714,0.46,0.858,0.897c-1.064,0.09-2.112,0.214-3.199,0.063c-0.496-0.067-1.235-0.427-1.689,0.331 c-0.069,0.116-0.634,0.118-0.764-0.02c-1.011-1.076-2.512-0.586-3.411-0.435c-1.242,0.209-2.314-0.586-3.458-0.119 C42.089,89.208,41.427,88.649,40.821,87.985"/>
            <path d=" M56.7,88.007c-0.135-1.098,0.724-1.901,0.85-3.104c0.202,0.618,0.347,1.067,0.574,1.768c0.068-0.632,0.108-1.006,0.148-1.402 c0.292,0.206,0.001,0.74,0.401,0.768c0.459,0.033,0.161-0.527,0.505-0.836l0,3.036c0.298-0.871,1.379-1.182,1.36-2.221 c0.599,0.543,0.915,1.106,1.019,1.919c0.38-0.488,0.029-1.068,0.464-1.362c0.086,0.036,0.194,0.049,0.208,0.092 c0.188,0.572,0.134,1.44,0.968,1.404c0.815-0.036,0.688-0.938,0.887-1.495c0.128-0.36,0.129-0.766,0.24-1.511 c0.271,1.144,1.338,1.522,1.097,2.554c-0.192-0.062-0.41-0.139-0.455,0.16c-0.188,1.263-0.764,1.5-2.099,1.418 c-0.896-0.055-2.03,0.103-2.952,0.072c-0.738-0.026-1.693-0.132-2.48-0.448C57.115,88.694,57.232,88.033,56.7,88.007"/>
            <path d=" M13.22,111.478c-0.009,0.526-0.053,0.864-0.807,0.784c-0.883-0.092-1.792,0.108-2.692,0.14c-0.488,0.016-0.609,0.27-0.598,0.682 c-1.586,0.174-3.2-0.128-4.779,0.286c-0.356,0.094-0.726-0.006-0.766-0.514c-0.041-0.505,0.174-0.785,0.681-0.743 c0.878,0.071,1.761,0.075,2.623,0.333c0.495,0.149,1.302,0.48,0.678-0.667c-0.21-0.389,0.071-0.916,0.561-0.754 C9.795,111.571,11.521,111.341,13.22,111.478"/>
            <path d=" M55.86,101.468c-2.974-0.154-5.932-0.142-9.156,0.256C49.954,101.975,52.905,101.426,55.86,101.468z"/>
            <path d=" M38.66,88.246c-0.141-0.662,0.467-1.047,0.608-1.75c0.279,0.479,0.389,1.771,1.031,0.024c0.154,0.716,0.244,1.125,0.333,1.537 C39.968,88.061,39.341,88.41,38.66,88.246"/>
            <path d=" M55.797,89.029c0.085-0.381,0.164-0.765,0.256-1.146c0.045-0.187,0.099-0.455,0.35-0.356c0.138,0.052,0.199,0.31,0.294,0.477 c0.125,0.578,0.123,1.111-0.556,1.35C55.859,89.451,55.814,89.244,55.797,89.029"/>
            <path d=" M16.18,109.244l-2.959,0C14.4,108.538,15.346,109.321,16.18,109.244"/>
            <path d=" M14.713,109.701c-0.686,0.401-1.127,0.211-1.572,0.115C13.55,109.437,13.999,109.486,14.713,109.701"/>
            <path d=" M40.692,88.292l0.082-0.005C40.757,88.452,40.729,88.454,40.692,88.292"/>
            <path d=" M38.518,88.295l0.114-0.008C38.604,88.45,38.567,88.464,38.518,88.295"/>
            <path d=" M10.321,113.769c1.1-0.061,2.192-0.509,3.298-0.308c0.003,0.103,0.006,0.206,0.007,0.309L10.321,113.769z"/>
            <path d=" M10.993,84.395c-0.05,0.028-0.099,0.055-0.15,0.082c-0.015-0.036-0.051-0.079-0.042-0.104c0.024-0.064,0.069-0.121,0.105-0.179 C10.938,84.261,10.965,84.329,10.993,84.395"/>
            <path d=" M69.91,86.57c0.011,0.031,0.023,0.06,0.033,0.09c-0.043,0.008-0.087,0.018-0.132,0.027c0.005-0.033,0.002-0.073,0.021-0.097 C69.844,86.573,69.882,86.576,69.91,86.57"/>
            <path d=" M31.569,82.996c0.068,1.324,0.529,2.47,1.466,3.434c0.265,0.271,0.307,0.27,0.431-0.067c0.086-0.232,0.227-0.478,0.437-0.037 c0.388,0.812,0.665,0.781,1.029-0.07c0.119-0.275,0.687-0.381,0.866-0.813c0.042,0.541,0.086,1.082,0.132,1.679 c0.395-0.335,0.752-0.989,0.867,0.222c0.326-0.688,0.556-1.169,0.829-1.744c0.41,0.781,0.568,1.567,0.681,2.364 c-1.509-0.252-2.912,0.702-4.457,0.348c-0.953-0.218-1.487-0.715-1.773-1.698c-0.211,0.458-0.098,0.987-0.598,1.342 c-0.295-0.935-0.913-1.402-1.914-1.258c-0.194,0.027-0.234-0.163-0.205-0.336c0.396-0.216,0.214-0.752,0.618-1.058 c-0.052,1.157,0.967,0.945,1.424,0.908c0.539-0.042,0.258-0.756,0.192-1.205c-0.125-0.873-0.806-1.557-0.835-2.463 c0.206-0.024,0.422-0.033,0.515-0.274C31.585,82.425,31.458,82.76,31.569,82.996"/>
            <path d=" M14.854,86.598c-0.059-0.498,0.107-0.944,0.3-1.382c0.835,0.119,1.332,0.814,2.067,1.127c0.53-0.564-0.496-1.714,0.732-2.119 c0.122,0.624,0.242,1.244,0.324,1.658c1.455-0.317,2.53-1.202,2.999-2.968c0.601,1.174,0.021,2.586,1.366,3.088 c-0.049,0.468,0,0.961-0.416,1.435c-0.163-0.408-0.296-0.636-0.848-0.723c-0.621-0.098-1.183-0.125-1.8-0.072 c-0.473,0.041-0.129,0.761-0.631,0.649c-0.498-0.11-1.208-0.011-0.885-1.163C16.882,87.978,15.783,88.05,14.854,86.598"/>
            <path d=" M4.036,86.676c0.415-0.373,0.205-1.015,0.754-1.421c0.555-0.412,0.829-0.75,1.052,0.215c0.434-0.477,0.6-0.959,0.618-1.417 c0.869-0.008,1.053,1.327,2.102,0.961c0.177-0.062,0.28,0.115,0.338,0.268c0.429,1.106,1.688,0.373,1.77,0.282 c0.939-1.044,1.049,0.528,1.638,0.478c0.107-0.008,0.246,0.377,0.369,0.58c0.057,0.454-0.277,0.612-0.555,0.779 c-0.389-0.355-0.142-1.729-1.356-0.683c-0.299,0.259-1.099-0.015-1.693,0.122c-0.419,0.096-0.047-0.551-0.357-0.717 c-0.434,0.061-0.208,0.68-0.627,0.763c-0.23-0.032-0.177-0.227-0.203-0.368c-0.054-0.299,0.052-0.677-0.384-0.778 c-0.397-0.093-0.685,0.192-0.748,0.464c-0.335,1.438-1.768,1.211-2.613,1.43C3.144,87.89,4.342,87,4.036,86.676"/>
            <path d=" M23.569,86.371c0.302-0.228,0.125-0.608,0.303-0.925c0.345,0.311,0.332,0.748,0.459,1.144c0.623-0.37,0.576-1.112,0.99-1.861 c0.12,0.893,0.218,1.524,1.088,0.711c0.547-0.509,0.735-0.3,0.752,0.901c-0.504,0.2-1.078,0.236-1.379,0.838 c-0.094,0.189-0.643,0.531-0.725,0.334c-0.306-0.739-0.47,0.667-0.84-0.003C24.013,87.14,23.45,86.959,23.569,86.371"/>
            <path d=" M27.193,86.41c0.776-0.215,0.863-0.872,0.908-1.511c0.045-0.587,0.01-1.184,0.191-1.779c0.04,0.886,0.083,1.773,0.123,2.659 c0.627-0.643,0.308-1.492,0.766-2.195c0.794,0.848,0.176,1.733,0.124,2.583c-0.209,0.415-0.417,0.827-0.621,1.231 c-0.384-0.056-0.274-0.49-0.563-0.621c-0.4,0.113-0.163,0.702-0.677,0.813C27.366,87.215,27.279,86.813,27.193,86.41"/>
        </g>
        <g id="horizon" clip-path="url(#ga_clippath)" fill-rule="evenodd" clip-rule="evenodd" fill="none" stroke="#FFFFFF" stroke-width="2.2338" stroke-miterlimit="10">
            <path d=" M24.911,55.725c1.033,0.307,1.532,0.036,2.582-0.38c1.509-0.596,2.997,0.219,4.505,0.101c0.282-0.023,0.502,0.313,0.463,0.611 c-0.161,1.207,0.731,1.992,1.141,2.968c0.288,0.684,0.76,0.792,1.341,0.401c0.852-0.571,1.729-0.468,2.652-0.228 c0.409,0.105,0.658,0.094,0.43,0.665c-0.323,0.802,0.352,0.824,0.773,0.619c0.897-0.438,1.661-0.215,2.532,0.084 c1.285,0.445,2.692-0.062,4.015,0.329c0.294,0.087,0.225,0.223,0.873,0.293"/>
            <path d=" M46.216,61.189c1.867-0.064,3.771-0.36,5.36,1.057c0.36,0.322,0.875,0.384,1.371,0.343c2.085-0.172,4.188,0.03,6.215,0.326 c1.898,0.278,3.806-0.048,5.666,0.413c1.051,0.262,1.966-0.598,3.089-0.293c1.215,0.332,2.535,0.209,3.765,0.613 c0.699,0.23,1.418,0.323,2.027-0.261c0.396-0.38,0.889-0.304,1.365-0.31c0.99-0.016,2.005,0.149,2.871-0.558 c0.255-0.208,0.629-0.23,0.921-0.058c1.481,0.888,3.333,0.672,4.802,1.683c0.605,0.415,1.525,0.251,2.241,0.096 c1.082-0.234,2.237,0.04,3.269-0.561c0.484-0.281,0.904,0.155,1.291,0.428c0.982,0.693,1.975,1.077,3.05,0.181 c0.162-0.134,0.369-0.246,0.545-0.097c1.388,1.162,2.995,0.312,4.489,0.461c0.458,0.044,0.92,0.022,1.188,0.362 c1.022,1.284,2.547,1.188,3.919,1.521c0.251,0.061,0.532,0.109,0.643-0.142c0.535-1.222,1.029-0.402,1.463,0.043 c0.773,0.796,1.323,1.8,2.422,2.278c0.526,0.228,0.386,0.836,0.351,1.303c-0.036,0.475-0.157,0.942-0.216,1.417 c-0.099,0.786,0.007,1.347,1.049,1.052c0.499-0.143,0.896,0.158,1.275,0.503c2.164,1.953,4.294,3.951,6.545,5.797 c1.719,1.411,3.834,2.207,5.803,3.204c0.678,0.343,1.653,0.096,2.493,0.121c1.468,0.041,2.948,0,4.405,0.05 c1.787,0.063,3.646-0.131,4.863-1.153c1.202-1.01,3.004-0.521,3.882-2.067c0.382-0.673,0.656-1.542,1.458-1.954 c0.486-0.25,0.911-0.561,1.302-0.911"/>
        </g>
        <path id="shore" clip-path="url(#ga_clippath)" fill="none" stroke="#FFFFFF" stroke-width="1.6753" stroke-miterlimit="10" d="M17.824,105.277 c0,0,2.827-0.829,14.907-1.795c12.08-0.964,18.264-1.44,30.4-1.857c12.136-0.417,26.252-0.903,31.415-1.196 c5.166-0.292,17.203-1.229,25.144-2.044c7.941-0.817,11.151-1.515,18.13,0.003"/>
        <g id="mountains-2" clip-path="url(#ga_clippath)" fill-rule="evenodd" clip-rule="evenodd" fill="#B0C494">
            <path d="M95.26,86.417 c-0.396-0.168-0.623,0.132-0.873,0.354c0-1.344,0-2.661,0-3.976c0.922-0.001,1.234-0.546,1.083-1.685 c0.477,0.811,0.08,1.47,0.506,1.949c-0.235,1.116-0.47,2.232-0.705,3.348L95.26,86.417z"/>
            <path d="M93.09,81.865 c0.009,0.121,0.045,0.248,0.018,0.358c-0.104,0.423,0.245,1.191-0.381,1.171c-0.391-0.01-0.988-0.551-1.047-1.227 c-0.031-0.349,0.068-0.735-0.223-1.027c0.081-0.335,0.161-0.67,0.238-0.984C92.534,80.487,92.019,81.788,93.09,81.865"/>
            <path d="M94.392,82.308 c0-0.151-0.003-0.302-0.003-0.452c0.098,0.055,0.257,0.091,0.279,0.165C94.727,82.226,94.56,82.282,94.392,82.308"/>
            <path d="M94.434,81.038 c0.016,0.027,0.043,0.053,0.041,0.078c-0.002,0.025-0.036,0.046-0.056,0.068C94.424,81.136,94.428,81.086,94.434,81.038"/>
            <path d="M115.375,87.222 c-0.087,0-0.171-0.002-0.255-0.006C115.206,87.217,115.29,87.22,115.375,87.222"/>
            <path d="M127.635,97.558 c0.418-0.015,0.837-0.046,1.256-0.051C128.478,97.471,128.059,97.485,127.635,97.558z"/>
            <path d="M96.03,88.845 c-0.37-0.572-0.055-1.163-0.075-1.756C96.291,87.651,96.227,88.238,96.03,88.845"/>
            <path d="M95.272,86.409 c0.05,0.129,0.101,0.259,0.15,0.387c-0.25-0.041-0.067-0.269-0.161-0.378L95.272,86.409"/>
            <path d="M73.281,85.905 c-0.109,0.142-0.222,0.284-0.332,0.426c-0.048-0.682-0.096-1.364-0.145-2.045c0.11-0.022,0.055-0.497,0.313-0.114 c0.235,0.348,0.472,0.694,0.709,1.04c-0.082,0.135-0.163,0.273-0.244,0.409C73.483,85.717,73.381,85.811,73.281,85.905"/>
            <path d="M77.462,83.279 c0.25,0.287,0.303,0.592,0.052,1.028c-0.028-0.406-0.046-0.713-0.065-1.017L77.462,83.279"/>
        </g>
        <g id="reeds-3" clip-path="url(#ga_clippath)" fill-rule="evenodd" clip-rule="evenodd" fill="#3B5A2A" stroke="#3B5A2A" stroke-width="0.5" stroke-miterlimit="10">
            <path d=" M85.608,86.481c-0.102,0.29-0.203,0.582-0.35,1.001c-0.211-0.567-0.091-1.121-0.446-1.481c-0.396,0.595-0.444,1.23-0.161,1.948 c0.113,0.289,0.119,0.837-0.306,0.929c-0.528,0.114-0.489-0.497-0.523-0.758c-0.116-0.867-0.109-1.751-0.157-2.792 c-0.693,0.835-0.023,1.831-0.65,2.6c-0.526-0.651-0.419-1.456-0.571-2.18c-0.037-0.178,0.338-0.5-0.146-0.527 c-0.47-0.024-0.325,0.319-0.32,0.589c0.012,0.758,0.114,1.522-0.082,2.273c-0.041,0.153-0.132,0.294-0.33,0.3 c-0.8-0.944-0.66-2.122-0.777-3.239c-0.035-0.417-0.069-0.836-0.106-1.3c0.619,0.094,0.233,0.624,0.522,0.86 c0.25,0.085,0.112-1.36,0.711-0.241c0.087-0.111,0.218-0.21,0.257-0.335c0.137-0.449,0.243-0.907,0.377-1.427 c0.54,0.547,0.302,1.303,0.773,1.804c0.429-0.394,0.543-1.05,1.283-1.411C84.591,84.372,85.837,85.164,85.608,86.481"/>
            <path d=" M80.386,85.145c-1.18,0.28-0.732-0.942-1.209-1.31c-0.014-0.38-0.188-0.792,0.283-1.146C80.07,83.405,80.3,84.245,80.386,85.145" />
            <path d=" M115.48,87.959c-0.311-0.069-0.469-0.286-0.555-0.574c0.064-0.058,0.131-0.115,0.195-0.169c0.083,0.003,0.168,0.004,0.255,0.006 C115.41,87.467,115.445,87.713,115.48,87.959"/>
            <path d=" M105.848,89.039c-0.236,0.016-0.488,0.091-0.703,0.033c-0.563-0.152-1.103-0.477-1.571,0.219c-0.082,0.12-0.454,0.05-0.615-0.178 c0.084-0.173,0.235-0.347,0.239-0.521c0.019-0.947,0.581-1.369,1.399-1.175C105.338,87.592,106.125,87.97,105.848,89.039"/>
            <path d=" M111.219,89.151c-0.418,0.209-0.824,0.473-1.328,0.274c-0.148-0.612,0.505-0.755,0.685-1.176 C110.893,88.478,111.25,88.676,111.219,89.151"/>
            <path d=" M108.056,89.242c-0.569,0.007-1.137,0.017-1.705,0.023C106.949,88.489,107.667,88.479,108.056,89.242"/>
        </g>
        <use xlink:href="#ga_outline" overflow="visible" fill="none" stroke="#000000" stroke-width="0.2513" stroke-miterlimit="10"/>
        <path id="tybee_island" fill="#5AAFD1" stroke="#000000" stroke-width="0.25" stroke-miterlimit="10" d="M132.343,99.167 c0,0.369,0.185,0.69,0.459,0.69c0.275,0,0.458-0.321,0.458-0.69c0-0.368-0.183-0.688-0.458-0.688 C132.528,98.479,132.343,98.799,132.343,99.167z"/>
        <path id="st_catherines_island" fill="#5AAFD1" stroke="#000000" stroke-width="0.25" stroke-miterlimit="10" d="M126.144,109.454 c-0.138,0.229-0.094,0.55,0.137,0.688c0.23,0.138,0.413-0.044,0.413-0.413C126.694,108.947,126.556,108.856,126.144,109.454z"/>
        <path id="sapelo_island" fill="#5AAFD1" stroke="#000000" stroke-width="0.25" stroke-miterlimit="10" d="M123.985,114.182 c-0.965,1.149-1.01,1.562-0.368,1.976c0.276,0.137,0.46,0,0.46-0.367c0-0.368,0.32-0.918,0.688-1.24 c0.735-0.597,0.919-1.377,0.367-1.377C124.903,113.173,124.397,113.632,123.985,114.182z"/>
        <path id="st_simons_island" fill="#5AAFD1" stroke="#000000" stroke-width="0.25" stroke-miterlimit="10" d="M121.321,120.566 c0,0.459-0.229,0.872-0.505,0.872s-0.414,0.459-0.323,1.011c0.093,0.597,0.323,1.056,0.598,1.056c0.276,0,0.644-0.459,0.919-1.056 c0.23-0.551,0.595-1.011,0.78-1.011c0.78,0,0.322-1.286-0.55-1.514C121.551,119.74,121.321,119.925,121.321,120.566z"/>
        <path id="cumberland_island" fill="#5AAFD1" stroke="#000000" stroke-width="0.25" stroke-miterlimit="10" d="M119.531,131.219 c-0.321,0.415-0.459,1.148-0.275,1.562c0.275,0.781,0.32,0.781,0.735,0c0.274-0.459,0.412-1.147,0.321-1.562 C120.173,130.533,120.128,130.533,119.531,131.219z"/>
    </g>
</svg>