<svg width="115" height="135" viewBox="0 0 135 135" preserveAspectRatio="xMidYMid meet"
    xmlns="http://www.w3.org/2000/svg">
    <style>
    @media (prefers-color-scheme:light){
        #g{fill:#f5d400;}
    }
    @media (prefers-color-scheme:dark){
        #g{fill:#ffdd00;}
    }
    </style>
    <g transform="translate(10,0)">
        <path id="g" fill="#f5d400" d="m 0.13,0.126 57,0.374 C 53.7,4.37 53.1,7.47 54.5,10.7 c 1.53,3.51 8.2,2.16 10.1,5.47 5.86,10.24 6.29,13.6 16.6,22.2 7.07,5.91 5.26,12.3 15.7,17.5 2.28,2.75 3.39,8.61 3.43,11.4 0.0403,2.91 2.55,1.16 4.09,4.18 3.26,6.39 3.91,11.5 7.19,14.6 1.41,1.33 -2.42,4.11 -3.85,7.16 -3.93,8.42 -8.35,17.6 -7.89,29.5 0.191,4.87 -9.34,-3.8 -11.9,-0.418 -2.62,3.40 -0.254,7.06 -1.52,11.8 l -3.22,-0.006 -1.44,-5.32 -66.1,-4.49 c -1.34,-5.09 -4.6,-9.28 -4.99,-14.3 -0.213,-2.7 1.3,-5 1.13,-7.43 -0.161,-2.24 -1.9,-5.28 -2.21,-8.04 -0.345,-3.11 0.783,-7.13 2.39,-10 1.6,-2.85 3.67,-4.56 3,-6.1 C 11,69.2 6.85,57.3 7.1,48.9 Z"/>
    </g>
</svg>